<svg width="90" height="91" viewBox="0 0 90 91" fill="none" xmlns="http://www.w3.org/2000/svg">
<g clipPath="url(#clip0_1_18854)">
<path d="M10.3796 70.6006C7.3722 70.6006 4.43412 69.8332 1.77138 68.338C0.401361 67.6325 -0.129271 65.8672 0.689176 64.5393C3.4085 60.194 4.39045 54.8824 3.14541 49.887C1.85492 44.7084 -0.0123181 40.3468 0.00104792 34.8645C0.0473835 15.6305 16.0566 0.0377218 35.2709 0.410857C53.8296 0.784661 69.1246 16.3855 69.1249 34.9491C69.1251 59.1936 43.7167 76.2152 21.2856 66.853C18.1938 69.2798 14.3076 70.6006 10.3796 70.6006ZM6.72528 64.6812C10.9507 65.9936 15.703 64.9452 18.9614 61.7951C19.7643 61.0187 20.9652 60.8233 21.9726 61.3052C41.1767 70.487 63.7784 56.0953 63.7782 34.9491C63.7782 19.1696 50.9415 6.07382 35.1633 5.75616C18.9031 5.43315 5.38667 18.6023 5.34746 34.8774C5.33477 40.0846 7.3664 44.2461 8.47668 49.1789C9.64643 54.3771 9.03025 59.8741 6.72528 64.6812Z" fill="white"/>
<path d="M79.6198 90.4048C75.692 90.4048 71.8056 89.0838 68.7143 86.6575C56.7851 91.6361 42.5952 89.3687 32.8142 80.9219C31.6968 79.9568 31.5734 78.2689 32.5382 77.1513C33.5032 76.0341 35.1911 75.9103 36.3085 76.8755C44.9835 84.3672 57.6882 86.0524 68.027 81.1096C69.0341 80.6276 70.2349 80.8232 71.0382 81.5995C74.2964 84.7494 79.0489 85.7985 83.2743 84.4855C80.5552 78.814 80.1785 72.3166 82.2857 66.3014C82.3046 66.2473 82.3253 66.194 82.3476 66.141C83.8865 62.5133 84.6619 58.6576 84.6524 54.6817C84.6354 47.6716 82.3035 41.1871 77.9083 35.9287C76.9615 34.7957 77.1124 33.11 78.2451 32.1632C79.3777 31.2162 81.0638 31.3673 82.0106 32.5C87.1422 38.6397 89.9792 46.5126 89.9988 54.6687C90.0101 59.3404 89.1037 63.8741 87.3049 68.1459C85.4153 73.6155 86.2844 79.4719 89.3102 84.3431C90.1293 85.6713 89.5982 87.4367 88.2278 88.1426C85.5655 89.6372 82.6267 90.4046 79.6198 90.4048Z" fill="white"/>
<path d="M34.5629 39.3099C36.899 39.3099 38.7928 37.4171 38.7928 35.0822C38.7928 32.7473 36.899 30.8545 34.5629 30.8545C32.2268 30.8545 30.333 32.7473 30.333 35.0822C30.333 37.4171 32.2268 39.3099 34.5629 39.3099Z" fill="white"/>
<path d="M18.9789 39.3099C21.315 39.3099 23.2088 37.4171 23.2088 35.0822C23.2088 32.7473 21.315 30.8545 18.9789 30.8545C16.6428 30.8545 14.749 32.7473 14.749 35.0822C14.749 37.4171 16.6428 39.3099 18.9789 39.3099Z" fill="white"/>
<path d="M50.1469 39.3099C52.483 39.3099 54.3768 37.4171 54.3768 35.0822C54.3768 32.7473 52.483 30.8545 50.1469 30.8545C47.8108 30.8545 45.917 32.7473 45.917 35.0822C45.917 37.4171 47.8108 39.3099 50.1469 39.3099Z" fill="white"/>
</g>
<defs>
<clipPath id="clip0_1_18854">
<rect width="90" height="90" fill="white" transform="translate(0 0.404297)"/>
</clipPath>
</defs>
</svg>
