<svg width="32" height="39" viewBox="0 0 32 39" fill="none" xmlns="http://www.w3.org/2000/svg">
<path d="M30.938 30.9557L26.1309 22.6191C26.1309 22.6191 26.0951 22.5565 26.0773 22.5297L21.3059 14.2646V5.62424C22.4853 5.20429 23.2805 3.93548 22.9589 2.55945C22.6819 1.37107 21.5471 0.566895 20.323 0.566895H12.1026C10.8784 0.566895 9.74365 1.37107 9.46665 2.55945C9.14499 3.93548 9.94022 5.20429 11.1197 5.62424V14.1127L5.03478 24.6474L1.3892 30.9557C0.450997 32.5908 0.450997 34.5476 1.3892 36.1828C2.33633 37.8269 4.03403 38.8008 5.9283 38.8008H26.4079C28.3021 38.8008 29.9909 37.8269 30.938 36.1828C31.8852 34.5476 31.8852 32.5908 30.938 30.9557ZM12.2902 15.6496L12.9067 14.5863V5.77614H13.693C14.1845 5.77614 14.5865 5.37405 14.5865 4.88262C14.5865 4.39118 14.1845 3.98909 13.693 3.98909H12.0043C11.5486 3.98909 11.1822 3.62275 11.1822 3.17599C11.1822 2.72922 11.5486 2.35394 12.0043 2.35394H20.4213C20.877 2.35394 21.2433 2.72029 21.2433 3.17599C21.2433 3.63168 20.877 3.98909 20.4213 3.98909H18.7325C18.2411 3.98909 17.839 4.39118 17.839 4.88262C17.839 5.37405 18.2411 5.77614 18.7325 5.77614H19.5188V14.7561L20.037 15.6496L23.7184 22.0293C22.5032 21.9847 21.3059 22.083 20.1353 22.3063C18.0713 22.7084 16.6327 23.4054 15.3729 24.0219C14.0683 24.6563 12.9425 25.2014 11.3431 25.3265C9.9849 25.4337 8.57313 25.1924 7.11669 24.6206L12.2902 15.6496ZM29.3922 35.2892C28.7668 36.3704 27.6499 37.0137 26.4079 37.0137H5.9283C4.67737 37.0137 3.56046 36.3704 2.94393 35.2892C2.31846 34.2081 2.31846 32.9214 2.94393 31.8492L6.21423 26.1753C7.73322 26.8186 9.24327 27.1403 10.7176 27.1403C10.9767 27.1403 11.2269 27.1224 11.4771 27.1046C13.416 26.9616 14.7474 26.3093 16.1502 25.6303C17.3743 25.0316 18.6431 24.4151 20.4749 24.0576C21.8777 23.7896 23.3252 23.727 24.7906 23.8789L29.3922 31.8492C30.0177 32.9214 30.0177 34.2081 29.3922 35.2892Z" fill="#2A3072"/>
<path d="M25.005 34.4145H10.521C10.0295 34.4145 9.62744 34.0124 9.62744 33.521C9.62744 33.0295 10.0295 32.6274 10.521 32.6274H25.005C25.4964 32.6274 25.8985 33.0295 25.8985 33.521C25.8985 34.0124 25.4964 34.4145 25.005 34.4145Z" fill="#2A3072"/>
<path d="M13.3449 17.9644C11.951 17.9644 10.8252 19.0991 10.8252 20.4841C10.8252 21.8691 11.951 23.0038 13.3449 23.0038C14.7388 23.0038 15.8647 21.878 15.8647 20.4841C15.8647 19.0902 14.7299 17.9644 13.3449 17.9644ZM13.3449 21.2168C12.9428 21.2168 12.6122 20.8862 12.6122 20.4841C12.6122 20.082 12.9428 19.7514 13.3449 19.7514C13.747 19.7514 14.0776 20.082 14.0776 20.4841C14.0776 20.8862 13.747 21.2168 13.3449 21.2168Z" fill="#2A3072"/>
<path d="M19.1974 19.5095C19.5971 19.5095 19.9211 19.1855 19.9211 18.7858C19.9211 18.386 19.5971 18.062 19.1974 18.062C18.7977 18.062 18.4736 18.386 18.4736 18.7858C18.4736 19.1855 18.7977 19.5095 19.1974 19.5095Z" fill="#2A3072"/>
<path d="M16.2125 15.1311C16.6122 15.1311 16.9363 14.8071 16.9363 14.4073C16.9363 14.0076 16.6122 13.6836 16.2125 13.6836C15.8128 13.6836 15.4888 14.0076 15.4888 14.4073C15.4888 14.8071 15.8128 15.1311 16.2125 15.1311Z" fill="#2A3072"/>
<path d="M7.42961 34.4403C7.93789 34.4403 8.34994 34.0282 8.34994 33.5199C8.34994 33.0117 7.93789 32.5996 7.42961 32.5996C6.92132 32.5996 6.50928 33.0117 6.50928 33.5199C6.50928 34.0282 6.92132 34.4403 7.42961 34.4403Z" fill="#2A3072"/>
</svg>
