<svg width="90" height="91" viewBox="0 0 90 91" fill="none" xmlns="http://www.w3.org/2000/svg">
<g clipPath="url(#clip0_1_18867)">
<path d="M87.7542 35.0758L76.9388 33.971C76.5481 32.8683 76.099 31.7847 75.5957 30.7294L82.4629 22.3001C83.3363 21.2282 83.2566 19.6696 82.2788 18.6918L71.7127 8.12564C70.7349 7.14786 69.1762 7.06889 68.1044 7.94231L61.0237 13.7108C60.2162 14.3686 59.0963 14.5211 58.0993 14.1063L58.0361 14.0802C57.0446 13.6703 56.3627 12.7729 56.257 11.7367L55.3286 2.65032C55.1879 1.27428 54.0302 0.228516 52.6473 0.228516H37.7045C36.3216 0.228516 35.1632 1.27428 35.0231 2.65032L34.0948 11.7367C33.989 12.7729 33.3072 13.6703 32.3102 14.0823L32.2497 14.107C31.2548 14.5204 30.1356 14.3679 29.3287 13.7108L22.2474 7.94162C21.1755 7.06889 19.6168 7.14786 18.639 8.12564L8.07291 18.6918C7.09512 19.6696 7.01547 21.2282 7.88889 22.3001L13.6574 29.3815C14.3152 30.189 14.4677 31.3082 14.0563 32.2984L14.0268 32.3684C13.6176 33.3599 12.7194 34.0418 11.6833 34.1475L2.5969 35.0758C1.22154 35.2159 0.175781 36.3743 0.175781 37.7572V52.7C0.175781 54.0829 1.22154 55.2413 2.5969 55.3814L11.684 56.3097C12.7194 56.4155 13.6176 57.0973 14.0275 58.0909L14.0543 58.1547C14.4677 59.149 14.3152 60.2682 13.6574 61.0757L7.88889 68.1571C7.01547 69.229 7.09512 70.7877 8.07291 71.7655L18.639 82.3316C19.6168 83.3094 21.1748 83.3883 22.2474 82.5156L29.3281 76.7464C30.1356 76.0886 31.2548 75.9368 32.2491 76.3495L32.3157 76.377C33.3072 76.7869 33.989 77.6844 34.0948 78.7205L35.0224 87.8069C35.1632 89.1823 36.3216 90.2287 37.7038 90.2287H52.6473C54.0295 90.2287 55.1879 89.1823 55.3286 87.8069L56.2563 78.7205C56.362 77.6844 57.0439 76.7869 58.0375 76.3763L58.102 76.3502C59.0963 75.9361 60.2155 76.0886 61.023 76.7464L68.1037 82.5156C69.1756 83.3883 70.7349 83.3094 71.712 82.3316L82.2788 71.7655C83.2559 70.7877 83.3356 69.229 82.4622 68.1571L76.6936 61.0757C76.0358 60.2682 75.8841 59.149 76.2981 58.1513L76.3242 58.0888C76.7342 57.0973 77.6316 56.4155 78.6678 56.3097L87.7542 55.3814C89.1295 55.2413 90.1753 54.0829 90.1753 52.7V37.7572C90.176 36.3743 89.1295 35.2159 87.7542 35.0758ZM84.7851 50.2659L78.1205 50.9463C75.1075 51.2546 72.5099 53.2026 71.3426 56.0296L71.3193 56.0866C70.1437 58.9162 70.6017 62.1325 72.5147 64.4808L76.7458 69.6746L69.6219 76.7986L64.4281 72.5675C62.0797 70.6545 58.8635 70.1965 56.0379 71.3699L55.9789 71.3947C53.1499 72.5627 51.2019 75.1596 50.8943 78.1726L50.2131 84.8378H40.1386L39.4575 78.1732C39.1499 75.1596 37.2018 72.5627 34.3783 71.3974L34.3172 71.3713C31.4883 70.1965 28.272 70.6545 25.9237 72.5675L20.7299 76.7986L13.6059 69.6746L17.837 64.4808C19.75 62.1325 20.208 58.9162 19.0339 56.0907L19.0098 56.0316C17.8418 53.2026 15.2442 51.2546 12.2312 50.9463L5.56665 50.2659V40.1914L12.2312 39.5109C15.2442 39.2026 17.8418 37.2546 19.0084 34.4277L19.0325 34.3707C20.208 31.541 19.75 28.3247 17.837 25.9771L13.6059 20.7826L20.7299 13.6586L25.9237 17.8904C28.272 19.8028 31.4883 20.2608 34.3172 19.0859L34.3729 19.0626C37.2012 17.8946 39.1499 15.2977 39.4575 12.2847L40.1386 5.61938H50.2131L50.8943 12.284C51.2019 15.297 53.1499 17.8946 55.9768 19.0619L56.0345 19.0859C58.8635 20.2608 62.0797 19.8028 64.4281 17.8898L69.6219 13.6586L76.7458 20.7826L70.3065 28.6873C69.6143 29.5367 69.5051 30.7204 70.0304 31.6818C70.9911 33.4396 71.7649 35.3079 72.3307 37.234C72.6397 38.2845 73.5536 39.044 74.6433 39.1552L84.7851 40.1914V50.2659Z" fill="white"/>
<path d="M50.8497 38.477L43.0618 46.2642L39.5036 42.706C38.451 41.6534 36.744 41.6534 35.6913 42.706C34.6387 43.758 34.6387 45.465 35.6913 46.5176L41.1557 51.9819C41.6823 52.5086 42.3717 52.7716 43.0618 52.7716C43.7512 52.7716 44.4413 52.5079 44.9672 51.9819L54.6606 42.2885C55.7133 41.2359 55.7133 39.5296 54.6606 38.477C53.6087 37.4243 51.9024 37.4243 50.8497 38.477Z" fill="white"/>
<path d="M45.1762 23.6943C33.302 23.6943 23.6416 33.3548 23.6416 45.229C23.6416 57.1031 33.302 66.7643 45.1762 66.7643C57.0504 66.7643 66.7108 57.1031 66.7108 45.229C66.7108 33.3548 57.0504 23.6943 45.1762 23.6943ZM45.1762 61.3734C36.2745 61.3734 29.0318 54.1306 29.0318 45.229C29.0318 36.3266 36.2745 29.0845 45.1762 29.0845C54.0779 29.0845 61.32 36.3266 61.32 45.229C61.32 54.1306 54.0779 61.3734 45.1762 61.3734Z" fill="white"/>
</g>
<defs>
<clipPath id="clip0_1_18867">
<rect width="90" height="90" fill="white" transform="translate(0 0.404297)"/>
</clipPath>
</defs>
</svg>
