<svg width="81" height="91" viewBox="0 0 81 91" fill="none" xmlns="http://www.w3.org/2000/svg">
<path fill-rule="evenodd" clip-rule="evenodd" d="M40.4528 5.67773C37.2653 5.67773 34.6875 8.25993 34.6875 11.4444C34.6875 14.6272 37.265 17.2097 40.4528 17.2097C43.6296 17.2097 46.2182 14.6243 46.2182 11.4444C46.2182 8.26284 43.6293 5.67773 40.4528 5.67773ZM29.4141 11.4444C29.4141 5.35151 34.3488 0.404297 40.4528 0.404297C46.5399 0.404297 51.4917 5.3486 51.4917 11.4444C51.4917 17.5391 46.5396 22.4831 40.4528 22.4831C34.3491 22.4831 29.4141 17.5362 29.4141 11.4444Z" fill="white"/>
<path fill-rule="evenodd" clip-rule="evenodd" d="M69.8668 22.6582C66.6793 22.6582 64.1016 25.2404 64.1016 28.4249C64.1016 31.6077 66.6791 34.1902 69.8668 34.1902C73.0436 34.1902 75.6323 31.6048 75.6323 28.4249C75.6323 25.2433 73.0434 22.6582 69.8668 22.6582ZM58.8281 28.4249C58.8281 22.332 63.7629 17.3848 69.8668 17.3848C75.954 17.3848 80.9057 22.3291 80.9057 28.4249C80.9057 34.5196 75.9537 39.4636 69.8668 39.4636C63.7632 39.4636 58.8281 34.5167 58.8281 28.4249Z" fill="white"/>
<path fill-rule="evenodd" clip-rule="evenodd" d="M11.0387 22.6582C7.86198 22.6582 5.27344 25.2435 5.27344 28.4235C5.27344 31.6051 7.86227 34.1902 11.0387 34.1902C14.2264 34.1902 16.804 31.6081 16.804 28.4235C16.804 25.2407 14.2266 22.6582 11.0387 22.6582ZM0 28.4235C0 22.3289 4.95177 17.3848 11.0387 17.3848C17.1426 17.3848 22.0774 22.3317 22.0774 28.4235C22.0774 34.5166 17.1428 39.4636 11.0387 39.4636C4.95148 39.4636 0 34.5192 0 28.4235Z" fill="white"/>
<path fill-rule="evenodd" clip-rule="evenodd" d="M11.0387 56.5303C7.85505 56.5303 5.27344 59.1117 5.27344 62.297C5.27344 65.4822 7.85505 68.0636 11.0387 68.0636C14.2224 68.0636 16.804 65.4822 16.804 62.297C16.804 59.1117 14.2224 56.5303 11.0387 56.5303ZM0 62.297C0 56.2001 4.94178 51.2568 11.0387 51.2568C17.1356 51.2568 22.0774 56.2001 22.0774 62.297C22.0774 68.3938 17.1356 73.3371 11.0387 73.3371C4.94178 73.3371 0 68.3938 0 62.297Z" fill="white"/>
<path fill-rule="evenodd" clip-rule="evenodd" d="M69.8672 34.1904C71.3234 34.1904 72.5039 35.3709 72.5039 36.8271V53.9815C72.5039 55.4377 71.3234 56.6182 69.8672 56.6182C68.411 56.6182 67.2305 55.4377 67.2305 53.9815V36.8271C67.2305 35.3709 68.411 34.1904 69.8672 34.1904Z" fill="white"/>
<path fill-rule="evenodd" clip-rule="evenodd" d="M29.4141 79.3639C29.4141 73.2721 34.3491 68.3252 40.4528 68.3252C46.5396 68.3252 51.4917 73.2692 51.4917 79.3639C51.4917 85.4597 46.5399 90.404 40.4528 90.404C34.3488 90.404 29.4141 85.4568 29.4141 79.3639ZM40.4528 73.5986C37.265 73.5986 34.6875 76.1811 34.6875 79.3639C34.6875 82.5484 37.2653 85.1306 40.4528 85.1306C43.6293 85.1306 46.2182 82.5455 46.2182 79.3639C46.2182 76.184 43.6296 73.5986 40.4528 73.5986Z" fill="white"/>
<path fill-rule="evenodd" clip-rule="evenodd" d="M58.8281 62.3848C58.8281 56.2919 63.7629 51.3447 69.867 51.3447C75.954 51.3447 80.9057 56.2889 80.9057 62.3848C80.9057 68.4795 75.9537 73.4235 69.867 73.4235C63.7631 73.4235 58.8284 68.4766 58.8281 62.3849V62.3848ZM64.1016 62.3848C64.1017 65.5677 66.6791 68.1501 69.867 68.1501C73.0436 68.1501 75.6323 65.5648 75.6323 62.3848C75.6323 59.2031 73.0434 56.6182 69.867 56.6182C66.6793 56.6182 64.1016 59.2003 64.1016 62.3847" fill="white"/>
<path fill-rule="evenodd" clip-rule="evenodd" d="M64.8639 65.268C65.5921 66.5291 65.16 68.1417 63.8989 68.8698L49.0434 77.4469C47.7823 78.175 46.1697 77.743 45.4416 76.4818C44.7135 75.2207 45.1455 73.6081 46.4067 72.88L61.2621 64.3029C62.5232 63.5748 64.1358 64.0069 64.8639 65.268Z" fill="white"/>
<path fill-rule="evenodd" clip-rule="evenodd" d="M35.4499 14.3266C36.178 15.5877 35.746 17.2003 34.4848 17.9284L19.6294 26.5057C18.3683 27.2338 16.7557 26.8017 16.0276 25.5406C15.2994 24.2795 15.7315 22.6669 16.9926 21.9388L31.848 13.3615C33.1091 12.6334 34.7217 13.0655 35.4499 14.3266Z" fill="white"/>
<path fill-rule="evenodd" clip-rule="evenodd" d="M16.0275 65.268C16.7557 64.0069 18.3683 63.5748 19.6294 64.3029L34.4848 72.88C35.7459 73.6081 36.178 75.2207 35.4499 76.4818C34.7218 77.743 33.1092 78.175 31.848 77.4469L16.9926 68.8698C15.7315 68.1417 15.2994 66.5291 16.0275 65.268Z" fill="white"/>
<path fill-rule="evenodd" clip-rule="evenodd" d="M11.0386 34.1904C12.4948 34.1904 13.6753 35.3709 13.6753 36.8271V53.9815C13.6753 55.4377 12.4948 56.6182 11.0386 56.6182C9.58235 56.6182 8.40186 55.4377 8.40186 53.9815V36.8271C8.40186 35.3709 9.58235 34.1904 11.0386 34.1904Z" fill="white"/>
<path fill-rule="evenodd" clip-rule="evenodd" d="M45.4416 14.3266C46.1698 13.0655 47.7824 12.6334 49.0435 13.3615L63.8989 21.9388C65.16 22.6669 65.5921 24.2795 64.8639 25.5406C64.1358 26.8017 62.5232 27.2338 61.2621 26.5057L46.4066 17.9284C45.1455 17.2003 44.7135 15.5877 45.4416 14.3266Z" fill="white"/>
</svg>
