<svg width="733" height="733" viewBox="0 0 733 733" fill="none" xmlns="http://www.w3.org/2000/svg">
<path d="M365.76 86.042V117.411C297.497 117.898 235.572 145.854 190.876 190.713L168.771 168.608C219.156 118.061 288.72 86.5296 365.76 86.042Z" fill="url(#paint0_linear_63_2)"/>
<path d="M565.999 565.999C515.127 616.709 445.075 648.078 367.548 648.078H365.76V616.709C366.41 616.709 366.897 616.709 367.548 616.709C436.299 616.709 498.711 588.916 543.895 543.732L565.999 565.999Z" fill="url(#paint1_linear_63_2)"/>
<path d="M648.565 365.76V367.223C648.565 444.913 617.034 515.289 565.999 566.162L543.895 544.057C589.241 498.873 617.196 436.299 617.196 367.223V365.76H648.565Z" fill="url(#paint2_linear_63_2)"/>
<path d="M648.566 365.76H617.197C616.872 296.521 588.267 234.109 542.433 189.088L564.537 166.983C616.06 217.531 648.078 287.907 648.566 365.76Z" fill="url(#paint3_linear_63_2)"/>
<path d="M564.537 166.82L542.432 188.925C497.411 144.553 435.649 117.411 367.386 117.411C366.735 117.411 366.248 117.411 365.598 117.411V86.042H367.386C444.263 86.042 513.827 116.923 564.537 166.82Z" fill="url(#paint4_linear_63_2)"/>
<path d="M365.76 616.709V648.077C288.07 647.59 217.856 615.571 167.309 564.211L189.413 542.106C234.272 587.778 296.684 616.221 365.76 616.709Z" fill="url(#paint5_linear_63_2)"/>
<path d="M190.713 190.713C145.854 235.572 118.224 297.496 117.736 365.76H86.5303C86.8553 288.882 118.224 219.156 168.609 168.608L190.713 190.713Z" fill="url(#paint6_linear_63_2)"/>
<path d="M189.413 542.106L167.309 564.211C117.411 513.501 86.5303 443.937 86.5303 367.059V365.597H117.899V367.059C117.736 435.16 145.042 497.085 189.413 542.106Z" fill="url(#paint7_linear_63_2)"/>
<path d="M174.297 268.891C226.271 268.891 268.403 226.758 268.403 174.785C268.403 122.811 226.271 80.6787 174.297 80.6787C122.324 80.6787 80.1914 122.811 80.1914 174.785C80.1914 226.758 122.324 268.891 174.297 268.891Z" fill="url(#paint8_linear_63_2)"/>
<path d="M258.268 190.802C267.091 144.329 236.569 99.5034 190.096 90.681C143.623 81.8585 98.797 112.38 89.9745 158.853C81.152 205.326 111.674 250.152 158.147 258.975C204.62 267.797 249.446 237.275 258.268 190.802Z" fill="white"/>
<path d="M366.248 188.925C391.44 188.925 415.007 179.173 432.723 161.294C450.439 143.578 460.354 119.849 460.354 94.8189C460.354 69.7889 450.602 46.0593 432.723 28.3433C415.007 10.6273 391.277 0.712891 366.248 0.712891C341.218 0.712891 317.488 10.4648 299.772 28.3433C282.056 46.0593 272.142 69.7889 272.142 94.8189C272.142 119.849 281.894 143.578 299.772 161.294C317.488 179.01 341.218 188.925 366.248 188.925Z" fill="url(#paint9_linear_63_2)"/>
<path d="M366.654 180.308C343.737 180.308 322.283 171.368 306.03 155.278C289.777 139.025 281 117.57 281 94.6533C281 71.7363 289.939 50.2821 306.03 34.0289C322.283 17.7757 343.737 8.99902 366.654 8.99902C389.571 8.99902 411.026 17.9383 427.279 34.0289C443.532 50.2821 452.309 71.7363 452.309 94.6533C452.309 117.57 443.369 139.025 427.279 155.278C411.026 171.531 389.571 180.308 366.654 180.308Z" fill="white"/>
<path d="M367.385 544.382C342.193 544.382 318.626 554.134 300.91 572.012C283.194 589.728 273.279 613.458 273.279 638.488C273.279 663.68 283.031 687.247 300.91 704.963C318.626 722.679 342.355 732.594 367.385 732.594C392.415 732.594 416.145 722.842 433.861 704.963C451.577 687.247 461.491 663.518 461.491 638.488C461.491 613.295 451.739 589.728 433.861 572.012C416.145 554.134 392.578 544.382 367.385 544.382Z" fill="url(#paint10_linear_63_2)"/>
<path d="M367.654 724.308C344.737 724.308 323.283 715.368 307.03 699.278C290.777 683.025 282 661.57 282 638.653C282 615.736 290.939 594.282 307.03 578.029C323.283 561.776 344.737 552.999 367.654 552.999C390.571 552.999 412.025 561.938 428.279 578.029C444.532 594.282 453.309 615.736 453.309 638.653C453.309 661.57 444.369 683.025 428.279 699.278C412.025 715.368 390.571 724.308 367.654 724.308Z" fill="white"/>
<path d="M558.685 268.078C610.533 268.078 652.791 225.82 652.791 173.972C652.791 122.125 610.533 79.8662 558.685 79.8662C506.837 79.8662 464.579 122.125 464.579 173.972C464.579 225.82 506.837 268.078 558.685 268.078Z" fill="url(#paint11_linear_63_2)"/>
<path d="M558.654 259.309C511.358 259.309 473 220.951 473 173.654C473 126.358 511.358 88 558.654 88C605.951 88 644.309 126.358 644.309 173.654C644.309 220.789 605.951 259.309 558.654 259.309Z" fill="white"/>
<path d="M705.29 299.447C687.574 281.731 663.844 271.816 638.814 271.816C613.622 271.816 590.054 281.568 572.338 299.447C554.622 317.163 544.708 340.892 544.708 365.922C544.708 391.115 554.46 414.682 572.338 432.398C590.054 450.114 613.784 460.028 638.814 460.028C664.006 460.028 687.574 450.276 705.29 432.398C723.005 414.682 732.92 390.952 732.92 365.922C732.92 340.892 723.005 317.163 705.29 299.447Z" fill="url(#paint12_linear_63_2)"/>
<path d="M638.654 451.309C615.737 451.309 594.283 442.369 578.03 426.279C561.777 410.026 553 388.571 553 365.654C553 342.737 561.939 321.283 578.03 305.03C594.283 288.777 615.737 280 638.654 280C661.571 280 683.026 288.939 699.279 305.03C715.532 321.283 724.309 342.737 724.309 365.654C724.309 388.571 715.369 410.026 699.279 426.279C683.188 442.369 661.571 451.309 638.654 451.309Z" fill="white"/>
<path d="M161.62 433.698C179.336 415.982 189.25 392.252 189.25 367.222C189.25 342.03 179.499 318.463 161.62 300.747C143.904 283.031 120.174 273.116 95.1445 273.116C70.1146 273.116 46.3849 282.868 28.6689 300.747C10.6279 318.3 0.875977 342.03 0.875977 367.222C0.875977 392.415 10.6279 415.982 28.5064 433.698C46.2224 451.414 69.952 461.328 94.9819 461.328C120.012 461.328 143.742 451.414 161.62 433.698Z" fill="url(#paint13_linear_63_2)"/>
<path d="M94.6543 452.309C71.7373 452.309 50.2831 443.369 34.0299 427.279C17.7767 411.026 9 389.571 9 366.654C9 343.737 17.9393 322.283 34.0299 306.03C50.2831 289.777 71.7373 281 94.6543 281C117.571 281 139.026 289.939 155.279 306.03C171.532 322.283 180.309 343.737 180.309 366.654C180.309 389.571 171.369 411.026 155.279 427.279C139.026 443.532 117.571 452.309 94.6543 452.309Z" fill="white"/>
<path d="M559.499 464.254C507.651 464.254 465.393 506.512 465.393 558.36C465.393 610.208 507.651 652.466 559.499 652.466C611.346 652.466 653.605 610.208 653.605 558.36C653.605 506.512 611.346 464.254 559.499 464.254Z" fill="url(#paint14_linear_63_2)"/>
<path d="M559.654 644.309C512.358 644.309 474 605.951 474 558.654C474 511.358 512.358 473 559.654 473C606.951 473 645.309 511.358 645.309 558.654C645.309 605.951 606.951 644.309 559.654 644.309Z" fill="white"/>
<path d="M175.11 465.066C123.262 465.066 81.0039 507.325 81.0039 559.172C81.0039 611.02 123.262 653.278 175.11 653.278C226.958 653.278 269.216 611.02 269.216 559.172C269.216 507.325 226.958 465.066 175.11 465.066Z" fill="url(#paint15_linear_63_2)"/>
<path d="M174.654 645.309C127.358 645.309 89 606.951 89 559.654C89 512.358 127.358 474 174.654 474C221.951 474 260.309 512.358 260.309 559.654C260.309 606.951 221.789 645.309 174.654 645.309Z" fill="white"/>
<path d="M268.565 230.695C250.362 230.695 235.571 245.486 235.571 263.689L216.393 211.517L268.565 230.695Z" fill="url(#paint16_linear_63_2)"/>
<path d="M216.393 211.517L245.161 240.285C251.174 234.271 259.301 230.695 268.403 230.695L216.393 211.517Z" fill="url(#paint17_linear_63_2)"/>
<path d="M201.277 340.08C188.437 352.92 188.437 373.724 201.277 386.727L150.893 363.485L201.277 340.08Z" fill="url(#paint18_linear_63_2)"/>
<path d="M150.893 363.322H191.688C191.688 354.87 194.939 346.419 201.277 340.08L150.893 363.322Z" fill="url(#paint19_linear_63_2)"/>
<path d="M231.021 464.903C231.021 483.107 245.811 497.897 264.015 497.897L211.842 517.076L231.021 464.903Z" fill="url(#paint20_linear_63_2)"/>
<path d="M211.842 517.077L240.61 488.308C234.596 482.295 231.021 474.168 231.021 465.066L211.842 517.077Z" fill="url(#paint21_linear_63_2)"/>
<path d="M340.242 532.192C353.082 545.032 373.886 545.032 386.889 532.192L363.647 582.577L340.242 532.192Z" fill="url(#paint22_linear_63_2)"/>
<path d="M363.647 582.577V541.782C355.196 541.782 346.744 538.531 340.405 532.192L363.647 582.577Z" fill="url(#paint23_linear_63_2)"/>
<path d="M465.229 502.449C483.433 502.449 498.223 487.659 498.223 469.455L517.402 521.628L465.229 502.449Z" fill="url(#paint24_linear_63_2)"/>
<path d="M517.402 521.627L488.472 492.859C482.458 498.873 474.331 502.449 465.229 502.449L517.402 521.627Z" fill="url(#paint25_linear_63_2)"/>
<path d="M532.518 393.065C545.358 380.225 545.358 359.421 532.518 346.418L582.902 369.66L532.518 393.065Z" fill="url(#paint26_linear_63_2)"/>
<path d="M582.902 369.822H542.107C542.107 378.274 538.856 386.726 532.518 393.064L582.902 369.822Z" fill="url(#paint27_linear_63_2)"/>
<path d="M502.774 268.24C502.774 250.037 487.984 235.246 469.78 235.246L521.953 216.067L502.774 268.24Z" fill="url(#paint28_linear_63_2)"/>
<path d="M521.953 216.067L493.185 244.836C499.198 250.849 502.774 258.976 502.774 268.078L521.953 216.067Z" fill="url(#paint29_linear_63_2)"/>
<path d="M393.39 200.952C380.55 188.112 359.746 188.112 346.743 200.952L369.985 150.567L393.39 200.952Z" fill="url(#paint30_linear_63_2)"/>
<path d="M370.147 150.567V191.363C378.599 191.363 387.051 194.614 393.39 200.952L370.147 150.567Z" fill="url(#paint31_linear_63_2)"/>
<path d="M478.577 478.285C540.272 416.59 540.272 316.563 478.577 254.868C416.882 193.173 316.855 193.173 255.161 254.868C193.466 316.563 193.466 416.59 255.161 478.285C316.855 539.979 416.882 539.979 478.577 478.285Z" fill="#D8D8D8"/>
<path opacity="0.58" d="M366.898 524.554C454.148 524.554 524.879 453.823 524.879 366.573C524.879 279.322 454.148 208.592 366.898 208.592C279.647 208.592 208.917 279.322 208.917 366.573C208.917 453.823 279.647 524.554 366.898 524.554Z" fill="url(#paint32_radial_63_2)"/>
<path d="M488.146 263.69L490.747 256.701C492.697 251.5 486.196 247.274 482.295 251.175L466.204 267.265L366.897 366.572H507.325C507.325 342.355 501.149 319.438 490.259 299.447C484.245 288.557 483.595 275.392 488.146 263.69Z" fill="url(#paint33_linear_63_2)"/>
<path d="M379.738 208.104L376.65 201.277C374.374 196.239 366.735 197.864 366.735 203.39V226.145V366.572L466.042 267.265C448.814 250.037 428.335 238.335 406.556 231.833C394.691 228.42 384.939 219.481 379.738 208.104Z" fill="url(#paint34_linear_63_2)"/>
<path d="M525.529 379.575L532.355 376.487C537.394 374.211 535.769 366.572 530.243 366.572H507.488H367.061L466.368 465.879C483.596 448.651 495.298 428.172 501.8 406.393C505.213 394.365 513.989 384.613 525.529 379.575Z" fill="url(#paint35_linear_63_2)"/>
<path d="M469.943 487.821L476.932 490.422C482.133 492.372 486.358 485.871 482.458 481.97L466.367 465.879L366.897 366.572V507C391.115 507 414.032 500.824 434.023 489.934C444.913 484.083 458.078 483.433 469.943 487.821Z" fill="url(#paint36_linear_63_2)"/>
<path d="M208.267 353.732L201.441 356.82C196.402 359.096 198.027 366.735 203.553 366.735H226.308H366.735L267.428 267.428C250.2 284.656 238.498 305.135 231.996 326.914C228.583 338.779 219.807 348.531 208.267 353.732Z" fill="url(#paint37_linear_63_2)"/>
<path d="M263.853 245.323L256.864 242.723C251.663 240.772 247.437 247.274 251.338 251.174L267.428 267.265L366.735 366.572V226.145C342.518 226.145 319.601 232.321 299.61 243.21C288.72 249.224 275.555 249.874 263.853 245.323Z" fill="url(#paint38_linear_63_2)"/>
<path d="M245.649 469.618L243.049 476.607C241.099 481.808 247.6 486.034 251.501 482.133L267.591 466.042L366.898 366.735H226.471C226.471 390.953 232.647 413.87 243.537 433.861C249.388 444.751 250.2 457.916 245.649 469.618Z" fill="url(#paint39_linear_63_2)"/>
<path d="M353.895 525.203L356.983 532.03C359.259 537.068 366.898 535.443 366.898 529.917V507.162V366.572L267.591 465.879C284.819 483.108 305.298 494.81 327.077 501.311C339.105 504.887 348.857 513.664 353.895 525.203Z" fill="url(#paint40_linear_63_2)"/>
<path d="M367.833 471.666C425.731 471.666 472.666 424.731 472.666 366.833C472.666 308.935 425.731 262 367.833 262C309.935 262 263 308.935 263 366.833C263 424.731 309.935 471.666 367.833 471.666Z" fill="url(#paint41_linear_63_2)"/>
<path d="M296.542 357.816H300.334L303.766 375H300.31L299.566 370.896H293.014L290.854 375H287.182L296.542 357.816ZM299.014 367.92L298.222 363.6L297.982 361.536H297.79L296.83 363.6L294.55 367.92H299.014ZM313.722 357.816H317.514L320.946 375H317.49L316.746 370.896H310.194L308.034 375H304.362L313.722 357.816ZM316.194 367.92L315.402 363.6L315.162 361.536H314.97L314.01 363.6L311.73 367.92H316.194ZM322.958 375L326.006 357.816H331.766C332.534 357.816 333.238 357.936 333.878 358.176C334.518 358.416 335.07 358.752 335.534 359.184C336.014 359.616 336.382 360.136 336.638 360.744C336.91 361.352 337.046 362.024 337.046 362.76C337.046 363.704 336.878 364.544 336.542 365.28C336.222 366.016 335.766 366.64 335.174 367.152C334.582 367.648 333.87 368.032 333.038 368.304C332.222 368.56 331.326 368.688 330.35 368.688H327.302L326.198 375H322.958ZM330.782 365.616C331.646 365.616 332.366 365.408 332.942 364.992C333.518 364.56 333.806 363.896 333.806 363C333.806 362.376 333.614 361.872 333.23 361.488C332.862 361.088 332.318 360.888 331.598 360.888H328.694L327.854 365.616H330.782ZM342.222 362.64L341.646 364.776H341.838C342.27 364.168 342.822 363.696 343.494 363.36C344.166 363.024 344.91 362.856 345.726 362.856C346.366 362.856 346.918 362.96 347.382 363.168C347.846 363.36 348.23 363.624 348.534 363.96C348.854 364.296 349.086 364.688 349.23 365.136C349.39 365.584 349.47 366.056 349.47 366.552C349.47 366.92 349.422 367.392 349.326 367.968L348.078 375H344.934L346.134 368.256C346.182 367.968 346.206 367.736 346.206 367.56C346.206 367.048 346.054 366.624 345.75 366.288C345.446 365.936 344.998 365.76 344.406 365.76C343.926 365.76 343.494 365.856 343.11 366.048C342.742 366.224 342.414 366.472 342.126 366.792C341.854 367.096 341.63 367.464 341.454 367.896C341.278 368.312 341.15 368.768 341.07 369.264L340.062 375H336.918L339.942 357.816H343.086L342.222 362.64ZM357.71 362.856C359.326 362.856 360.558 363.24 361.406 364.008C362.254 364.776 362.678 365.784 362.678 367.032C362.678 367.224 362.662 367.424 362.63 367.632C362.614 367.824 362.59 368.032 362.558 368.256L361.358 375H358.262L358.478 373.752H358.286C357.918 374.216 357.454 374.608 356.894 374.928C356.35 375.232 355.686 375.384 354.902 375.384C354.31 375.384 353.766 375.288 353.27 375.096C352.79 374.92 352.374 374.672 352.022 374.352C351.686 374.016 351.422 373.624 351.23 373.176C351.038 372.712 350.942 372.216 350.942 371.688C350.942 371.016 351.07 370.416 351.326 369.888C351.598 369.36 351.974 368.912 352.454 368.544C352.95 368.16 353.534 367.872 354.206 367.68C354.894 367.472 355.646 367.368 356.462 367.368C357.054 367.368 357.59 367.424 358.07 367.536C358.566 367.632 359.038 367.76 359.486 367.92L359.582 367.56C359.614 367.4 359.63 367.272 359.63 367.176C359.63 366.664 359.414 366.24 358.982 365.904C358.566 365.568 358.014 365.4 357.326 365.4C356.718 365.4 356.182 365.52 355.718 365.76C355.254 365.984 354.838 366.312 354.47 366.744L352.358 365.208C352.998 364.392 353.782 363.8 354.71 363.432C355.638 363.048 356.638 362.856 357.71 362.856ZM355.934 372.936C356.334 372.936 356.71 372.864 357.062 372.72C357.43 372.56 357.75 372.36 358.022 372.12C358.31 371.864 358.542 371.576 358.718 371.256C358.91 370.92 359.038 370.576 359.102 370.224C358.862 370.112 358.518 369.992 358.07 369.864C357.638 369.72 357.134 369.648 356.558 369.648C355.886 369.648 355.31 369.8 354.83 370.104C354.35 370.392 354.11 370.84 354.11 371.448C354.11 371.944 354.286 372.32 354.638 372.576C355.006 372.816 355.438 372.936 355.934 372.936ZM363.426 375L365.49 363.24H368.442L368.154 364.872H368.346C368.73 364.312 369.226 363.848 369.834 363.48C370.442 363.096 371.154 362.904 371.97 362.904C372.386 362.904 372.722 362.944 372.978 363.024C373.25 363.104 373.482 363.208 373.674 363.336L372.498 366.192C372.322 366.112 372.114 366.04 371.874 365.976C371.65 365.912 371.37 365.88 371.034 365.88C370.122 365.88 369.354 366.2 368.73 366.84C368.122 367.464 367.73 368.288 367.554 369.312L366.57 375H363.426ZM375.263 363.24H378.215L377.927 364.776H378.119C378.567 364.168 379.095 363.696 379.703 363.36C380.311 363.024 381.047 362.856 381.911 362.856C382.807 362.856 383.527 363.064 384.071 363.48C384.615 363.896 384.991 364.408 385.199 365.016C385.615 364.408 386.159 363.896 386.831 363.48C387.519 363.064 388.391 362.856 389.447 362.856C390.039 362.856 390.567 362.952 391.031 363.144C391.495 363.32 391.879 363.568 392.183 363.888C392.487 364.208 392.719 364.592 392.879 365.04C393.039 365.472 393.119 365.944 393.119 366.456C393.119 366.664 393.111 366.872 393.095 367.08C393.079 367.272 393.047 367.496 392.999 367.752L391.703 375H388.583L389.783 368.16C389.831 367.904 389.855 367.648 389.855 367.392C389.855 366.896 389.719 366.504 389.447 366.216C389.175 365.912 388.751 365.76 388.175 365.76C387.775 365.76 387.399 365.856 387.047 366.048C386.711 366.224 386.407 366.472 386.135 366.792C385.863 367.096 385.631 367.464 385.439 367.896C385.263 368.328 385.127 368.792 385.031 369.288L384.023 375H380.879L382.079 368.16C382.127 367.92 382.151 367.672 382.151 367.416C382.151 366.888 381.999 366.48 381.695 366.192C381.391 365.904 380.967 365.76 380.423 365.76C380.023 365.76 379.655 365.856 379.319 366.048C378.983 366.224 378.679 366.472 378.407 366.792C378.151 367.096 377.935 367.464 377.759 367.896C377.583 368.328 377.447 368.792 377.351 369.288L376.343 375H373.199L375.263 363.24ZM401.327 362.856C402.943 362.856 404.175 363.24 405.023 364.008C405.871 364.776 406.295 365.784 406.295 367.032C406.295 367.224 406.279 367.424 406.247 367.632C406.231 367.824 406.207 368.032 406.175 368.256L404.975 375H401.879L402.095 373.752H401.903C401.535 374.216 401.071 374.608 400.511 374.928C399.967 375.232 399.303 375.384 398.519 375.384C397.927 375.384 397.383 375.288 396.887 375.096C396.407 374.92 395.991 374.672 395.639 374.352C395.303 374.016 395.039 373.624 394.847 373.176C394.655 372.712 394.559 372.216 394.559 371.688C394.559 371.016 394.687 370.416 394.943 369.888C395.215 369.36 395.591 368.912 396.071 368.544C396.567 368.16 397.151 367.872 397.823 367.68C398.511 367.472 399.263 367.368 400.079 367.368C400.671 367.368 401.207 367.424 401.687 367.536C402.183 367.632 402.655 367.76 403.103 367.92L403.199 367.56C403.231 367.4 403.247 367.272 403.247 367.176C403.247 366.664 403.031 366.24 402.599 365.904C402.183 365.568 401.631 365.4 400.943 365.4C400.335 365.4 399.799 365.52 399.335 365.76C398.871 365.984 398.455 366.312 398.087 366.744L395.975 365.208C396.615 364.392 397.399 363.8 398.327 363.432C399.255 363.048 400.255 362.856 401.327 362.856ZM399.551 372.936C399.951 372.936 400.327 372.864 400.679 372.72C401.047 372.56 401.367 372.36 401.639 372.12C401.927 371.864 402.159 371.576 402.335 371.256C402.527 370.92 402.655 370.576 402.719 370.224C402.479 370.112 402.135 369.992 401.687 369.864C401.255 369.72 400.751 369.648 400.175 369.648C399.503 369.648 398.927 369.8 398.447 370.104C397.967 370.392 397.727 370.84 397.727 371.448C397.727 371.944 397.903 372.32 398.255 372.576C398.623 372.816 399.055 372.936 399.551 372.936ZM412.899 375.384C412.179 375.384 411.499 375.28 410.859 375.072C410.219 374.88 409.643 374.584 409.131 374.184C408.619 373.768 408.187 373.256 407.835 372.648C407.483 372.04 407.243 371.328 407.115 370.512L410.211 369.264C410.243 369.696 410.331 370.096 410.475 370.464C410.619 370.832 410.819 371.152 411.075 371.424C411.331 371.696 411.635 371.912 411.987 372.072C412.355 372.232 412.771 372.312 413.235 372.312C414.067 372.312 414.771 372.112 415.347 371.712C415.923 371.296 416.211 370.736 416.211 370.032C416.211 369.44 416.003 368.944 415.587 368.544C415.171 368.144 414.451 367.744 413.427 367.344L412.587 367.008C412.123 366.832 411.675 366.616 411.243 366.36C410.827 366.088 410.459 365.768 410.139 365.4C409.819 365.032 409.563 364.608 409.371 364.128C409.179 363.632 409.083 363.072 409.083 362.448C409.083 361.728 409.235 361.064 409.539 360.456C409.859 359.832 410.291 359.304 410.835 358.872C411.379 358.424 412.019 358.072 412.755 357.816C413.507 357.56 414.315 357.432 415.179 357.432C416.059 357.432 416.811 357.552 417.435 357.792C418.059 358.032 418.571 358.336 418.971 358.704C419.387 359.072 419.707 359.472 419.931 359.904C420.155 360.32 420.307 360.72 420.387 361.104L417.411 362.232C417.299 361.72 417.035 361.288 416.619 360.936C416.219 360.584 415.627 360.408 414.843 360.408C414.523 360.408 414.211 360.456 413.907 360.552C413.603 360.632 413.331 360.752 413.091 360.912C412.851 361.072 412.659 361.272 412.515 361.512C412.371 361.752 412.299 362.024 412.299 362.328C412.299 362.856 412.491 363.296 412.875 363.648C413.275 363.984 413.883 364.304 414.699 364.608L415.707 364.968C416.859 365.4 417.771 365.984 418.443 366.72C419.131 367.456 419.475 368.44 419.475 369.672C419.475 370.504 419.315 371.272 418.995 371.976C418.675 372.664 418.227 373.264 417.651 373.776C417.075 374.272 416.379 374.664 415.563 374.952C414.763 375.24 413.875 375.384 412.899 375.384ZM420.739 380.184L424.363 374.304L421.435 363.24H424.939L426.643 370.392H426.835L430.987 363.24H434.539L424.171 380.184H420.739ZM438.373 364.776H438.565C438.981 364.168 439.525 363.696 440.197 363.36C440.869 363.024 441.613 362.856 442.429 362.856C443.037 362.856 443.573 362.96 444.037 363.168C444.501 363.36 444.893 363.624 445.213 363.96C445.533 364.296 445.773 364.696 445.932 365.16C446.093 365.608 446.173 366.088 446.173 366.6C446.173 366.824 446.165 367.056 446.148 367.296C446.133 367.536 446.101 367.792 446.053 368.064L444.805 375H441.685L442.885 368.256C442.901 368.176 442.909 368.072 442.909 367.944C442.925 367.8 442.933 367.664 442.933 367.536C442.933 367.024 442.781 366.6 442.477 366.264C442.173 365.928 441.717 365.76 441.109 365.76C440.629 365.76 440.205 365.848 439.837 366.024C439.469 366.2 439.149 366.448 438.877 366.768C438.605 367.072 438.381 367.44 438.205 367.872C438.029 368.288 437.893 368.744 437.797 369.24L436.789 375H433.644L435.709 363.24H438.661L438.373 364.776Z" fill="#2A3072"/>
<defs>
<linearGradient id="paint0_linear_63_2" x1="168.606" y1="138.399" x2="365.694" y2="138.399" gradientUnits="userSpaceOnUse">
<stop stop-color="#8EBF06"/>
<stop offset="1" stop-color="#BDDD36"/>
</linearGradient>
<linearGradient id="paint1_linear_63_2" x1="365.694" y1="595.949" x2="565.97" y2="595.949" gradientUnits="userSpaceOnUse">
<stop stop-color="#3D3E42"/>
<stop offset="1" stop-color="#5D5F63"/>
</linearGradient>
<linearGradient id="paint2_linear_63_2" x1="656.319" y1="387.41" x2="509.466" y2="567.954" gradientUnits="userSpaceOnUse">
<stop stop-color="#F74646"/>
<stop offset="0.5" stop-color="#D53636"/>
<stop offset="1" stop-color="#B72727"/>
</linearGradient>
<linearGradient id="paint3_linear_63_2" x1="564.039" y1="353.634" x2="636.597" y2="177.498" gradientUnits="userSpaceOnUse">
<stop stop-color="#F74646"/>
<stop offset="1" stop-color="#FF9976"/>
</linearGradient>
<linearGradient id="paint4_linear_63_2" x1="415.303" y1="92.2946" x2="546.117" y2="223.109" gradientUnits="userSpaceOnUse">
<stop stop-color="#FFBB22"/>
<stop offset="1" stop-color="#F9972D"/>
</linearGradient>
<linearGradient id="paint5_linear_63_2" x1="306.668" y1="630.431" x2="237.603" y2="561.725" gradientUnits="userSpaceOnUse">
<stop stop-color="#813ABF"/>
<stop offset="1" stop-color="#B178F4"/>
</linearGradient>
<linearGradient id="paint6_linear_63_2" x1="66.705" y1="288.943" x2="203.265" y2="250.023" gradientUnits="userSpaceOnUse">
<stop stop-color="#87D9F9"/>
<stop offset="1" stop-color="#489AD8"/>
</linearGradient>
<linearGradient id="paint7_linear_63_2" x1="103.853" y1="537.802" x2="155.68" y2="410.227" gradientUnits="userSpaceOnUse">
<stop stop-color="#435BAA"/>
<stop offset="1" stop-color="#489AD8"/>
</linearGradient>
<linearGradient id="paint8_linear_63_2" x1="117.074" y1="117.586" x2="273.104" y2="273.616" gradientUnits="userSpaceOnUse">
<stop stop-color="#8EBF06"/>
<stop offset="1" stop-color="#BDDD36"/>
</linearGradient>
<linearGradient id="paint9_linear_63_2" x1="309.111" y1="37.5337" x2="465.216" y2="193.639" gradientUnits="userSpaceOnUse">
<stop stop-color="#FFBB22"/>
<stop offset="1" stop-color="#F9972D"/>
</linearGradient>
<linearGradient id="paint10_linear_63_2" x1="295.569" y1="555.447" x2="421.565" y2="700.942" gradientUnits="userSpaceOnUse">
<stop stop-color="#813ABF"/>
<stop offset="1" stop-color="#B178F4"/>
</linearGradient>
<linearGradient id="paint11_linear_63_2" x1="501.534" y1="116.785" x2="657.564" y2="272.816" gradientUnits="userSpaceOnUse">
<stop stop-color="#F74646"/>
<stop offset="1" stop-color="#FF9976"/>
</linearGradient>
<linearGradient id="paint12_linear_63_2" x1="581.532" y1="308.822" x2="737.637" y2="464.927" gradientUnits="userSpaceOnUse">
<stop stop-color="#F74646"/>
<stop offset="0.5" stop-color="#D53636"/>
<stop offset="1" stop-color="#B72727"/>
</linearGradient>
<linearGradient id="paint13_linear_63_2" x1="37.8231" y1="309.955" x2="193.927" y2="466.059" gradientUnits="userSpaceOnUse">
<stop stop-color="#87D9F9"/>
<stop offset="1" stop-color="#489AD8"/>
</linearGradient>
<linearGradient id="paint14_linear_63_2" x1="502.335" y1="501.246" x2="658.365" y2="657.277" gradientUnits="userSpaceOnUse">
<stop stop-color="#3D3E42"/>
<stop offset="1" stop-color="#5D5F63"/>
</linearGradient>
<linearGradient id="paint15_linear_63_2" x1="117.874" y1="502.046" x2="273.905" y2="658.077" gradientUnits="userSpaceOnUse">
<stop stop-color="#435BAA"/>
<stop offset="1" stop-color="#489AD8"/>
</linearGradient>
<linearGradient id="paint16_linear_63_2" x1="216.398" y1="237.569" x2="268.511" y2="237.569" gradientUnits="userSpaceOnUse">
<stop stop-color="#8EBF06"/>
<stop offset="1" stop-color="#BDDD36"/>
</linearGradient>
<linearGradient id="paint17_linear_63_2" x1="247.063" y1="216.356" x2="229.702" y2="234.222" gradientUnits="userSpaceOnUse">
<stop stop-color="white"/>
<stop offset="1" stop-color="#76930A"/>
</linearGradient>
<linearGradient id="paint18_linear_63_2" x1="169.246" y1="381.754" x2="206.096" y2="344.905" gradientUnits="userSpaceOnUse">
<stop stop-color="#87D9F9"/>
<stop offset="1" stop-color="#489AD8"/>
</linearGradient>
<linearGradient id="paint19_linear_63_2" x1="176.024" y1="350.748" x2="176.024" y2="363.966" gradientUnits="userSpaceOnUse">
<stop stop-color="white"/>
<stop offset="1" stop-color="#489AD8"/>
</linearGradient>
<linearGradient id="paint20_linear_63_2" x1="237.857" y1="517.048" x2="237.857" y2="464.935" gradientUnits="userSpaceOnUse">
<stop stop-color="#435BAA"/>
<stop offset="1" stop-color="#489AD8"/>
</linearGradient>
<linearGradient id="paint21_linear_63_2" x1="216.643" y1="486.384" x2="234.51" y2="503.745" gradientUnits="userSpaceOnUse">
<stop stop-color="white"/>
<stop offset="1" stop-color="#001D55"/>
</linearGradient>
<linearGradient id="paint22_linear_63_2" x1="382.041" y1="564.202" x2="345.192" y2="527.352" gradientUnits="userSpaceOnUse">
<stop stop-color="#813ABF"/>
<stop offset="1" stop-color="#B178F4"/>
</linearGradient>
<linearGradient id="paint23_linear_63_2" x1="345.358" y1="557.519" x2="370.268" y2="557.161" gradientUnits="userSpaceOnUse">
<stop stop-color="white"/>
<stop offset="1" stop-color="#3F0038"/>
</linearGradient>
<linearGradient id="paint24_linear_63_2" x1="517.337" y1="495.59" x2="465.224" y2="495.59" gradientUnits="userSpaceOnUse">
<stop stop-color="#3D3E42"/>
<stop offset="1" stop-color="#5D5F63"/>
</linearGradient>
<linearGradient id="paint25_linear_63_2" x1="490.824" y1="512.518" x2="499.555" y2="503.787" gradientUnits="userSpaceOnUse">
<stop stop-color="white"/>
<stop offset="0.9995"/>
</linearGradient>
<linearGradient id="paint26_linear_63_2" x1="564.489" y1="351.406" x2="527.64" y2="388.255" gradientUnits="userSpaceOnUse">
<stop stop-color="#F74646"/>
<stop offset="0.5" stop-color="#D53636"/>
<stop offset="1" stop-color="#B72727"/>
</linearGradient>
<linearGradient id="paint27_linear_63_2" x1="558.286" y1="368.557" x2="557.536" y2="385.432" gradientUnits="userSpaceOnUse">
<stop offset="3.2e-07" stop-color="#8D2222"/>
<stop offset="0.9995" stop-color="white"/>
</linearGradient>
<linearGradient id="paint28_linear_63_2" x1="495.878" y1="216.11" x2="495.878" y2="268.223" gradientUnits="userSpaceOnUse">
<stop stop-color="#F74646"/>
<stop offset="1" stop-color="#FF9976"/>
</linearGradient>
<linearGradient id="paint29_linear_63_2" x1="503.524" y1="230.694" x2="515.078" y2="245.715" gradientUnits="userSpaceOnUse">
<stop stop-color="#D12222"/>
<stop offset="0.9995" stop-color="white"/>
</linearGradient>
<linearGradient id="paint30_linear_63_2" x1="351.694" y1="168.958" x2="388.543" y2="205.807" gradientUnits="userSpaceOnUse">
<stop stop-color="#FFBB22"/>
<stop offset="1" stop-color="#F9972D"/>
</linearGradient>
<linearGradient id="paint31_linear_63_2" x1="382.583" y1="175.736" x2="364.338" y2="175.736" gradientUnits="userSpaceOnUse">
<stop stop-color="white"/>
<stop offset="1" stop-color="#F9972D"/>
</linearGradient>
<radialGradient id="paint32_radial_63_2" cx="0" cy="0" r="1" gradientUnits="userSpaceOnUse" gradientTransform="translate(375.495 376.958) scale(177.164 177.164)">
<stop offset="0.5456" stop-color="white"/>
<stop offset="0.7149" stop-color="#FDFDFD"/>
<stop offset="0.7759" stop-color="#F6F6F6"/>
<stop offset="0.8194" stop-color="#EBEBEB"/>
<stop offset="0.8546" stop-color="#DADADA"/>
<stop offset="0.8847" stop-color="#C4C4C4"/>
<stop offset="0.9114" stop-color="#A8A8A8"/>
<stop offset="0.9355" stop-color="#888888"/>
<stop offset="0.9577" stop-color="#626262"/>
<stop offset="0.9783" stop-color="#373737"/>
<stop offset="0.9966" stop-color="#090909"/>
<stop offset="1"/>
</radialGradient>
<linearGradient id="paint33_linear_63_2" x1="423.678" y1="399.231" x2="491.831" y2="233.787" gradientUnits="userSpaceOnUse">
<stop stop-color="#F74646"/>
<stop offset="1" stop-color="#FF9976"/>
</linearGradient>
<linearGradient id="paint34_linear_63_2" x1="350.334" y1="250.728" x2="427.729" y2="328.123" gradientUnits="userSpaceOnUse">
<stop stop-color="#FFBB22"/>
<stop offset="1" stop-color="#F9972D"/>
</linearGradient>
<linearGradient id="paint35_linear_63_2" x1="482.84" y1="335.357" x2="398.883" y2="438.575" gradientUnits="userSpaceOnUse">
<stop stop-color="#F74646"/>
<stop offset="0.5" stop-color="#D53636"/>
<stop offset="1" stop-color="#B72727"/>
</linearGradient>
<linearGradient id="paint36_linear_63_2" x1="483.879" y1="436.832" x2="366.89" y2="436.832" gradientUnits="userSpaceOnUse">
<stop stop-color="#3D3E42"/>
<stop offset="1" stop-color="#5D5F63"/>
</linearGradient>
<linearGradient id="paint37_linear_63_2" x1="197.525" y1="351.06" x2="345.684" y2="308.834" gradientUnits="userSpaceOnUse">
<stop stop-color="#87D9F9"/>
<stop offset="1" stop-color="#489AD8"/>
</linearGradient>
<linearGradient id="paint38_linear_63_2" x1="249.901" y1="296.374" x2="366.89" y2="296.374" gradientUnits="userSpaceOnUse">
<stop stop-color="#8EBF06"/>
<stop offset="1" stop-color="#BDDD36"/>
</linearGradient>
<linearGradient id="paint39_linear_63_2" x1="249.011" y1="483.897" x2="297.163" y2="365.37" gradientUnits="userSpaceOnUse">
<stop stop-color="#435BAA"/>
<stop offset="1" stop-color="#489AD8"/>
</linearGradient>
<linearGradient id="paint40_linear_63_2" x1="388.352" y1="530.416" x2="329.583" y2="436.088" gradientUnits="userSpaceOnUse">
<stop stop-color="#813ABF"/>
<stop offset="1" stop-color="#B178F4"/>
</linearGradient>
<linearGradient id="paint41_linear_63_2" x1="315.71" y1="314.771" x2="436.8" y2="435.861" gradientUnits="userSpaceOnUse">
<stop stop-color="white"/>
<stop offset="1" stop-color="#E5E5E5"/>
</linearGradient>
</defs>
</svg>
