<svg width="148" height="272" viewBox="0 0 148 272" fill="none" xmlns="http://www.w3.org/2000/svg">
<path d="M122.398 26.5652C126.074 22.771 125.431 17.0389 120.887 14.0337C107.878 5.42727 91.6332 0.318329 74.0138 0.318329C56.1263 0.318329 39.6607 5.57909 26.5596 14.4199C21.7288 17.6796 21.2343 23.8575 25.5615 27.6122C29.189 30.7604 34.932 31.0299 38.9832 28.2968C48.6681 21.7652 60.8308 17.8709 74.0138 17.8709C86.9915 17.8709 98.9801 21.6449 108.59 27.994C112.855 30.8122 118.949 30.125 122.398 26.5652Z" fill="#2A3072"/>
<path d="M148 72.8569V171.768C148 214.255 115.37 249.47 74.5771 249.781C33.4638 250.096 0.0458984 215.483 0.0458984 172.734V72.8579C0.0458984 64.1485 1.43267 55.7742 3.99362 47.9646C5.9583 41.9708 12.6312 39.2703 17.9261 42.3825C21.9734 44.7609 23.8395 49.8055 22.328 54.3822C20.4136 60.1787 19.3728 66.397 19.3728 72.8589V171.871C19.3728 203.105 43.1847 229.169 73.1691 229.648C103.69 230.135 128.672 204.414 128.672 172.735V72.8589C128.672 65.2506 127.232 57.9886 124.624 51.3495C122.856 46.8524 124.426 41.6869 128.355 39.065C133.465 35.6559 140.264 37.9447 142.554 43.7986C146.065 52.7647 148 62.5773 148 72.8569Z" fill="#2A3072"/>
<path d="M73.8999 262.527C36.1636 262.527 5.46338 229.489 5.46338 188.879V79.067C5.46338 67.361 8.09272 55.6963 13.0691 45.3352C15.9616 39.276 19.6667 33.6423 24.0684 28.6165C36.959 13.8708 55.1245 5.40811 73.8999 5.40811C92.6753 5.40811 110.841 13.8698 123.737 28.6236C127.183 32.5514 130.243 36.927 132.821 41.616C139.046 52.9329 142.337 65.884 142.337 79.066V188.878C142.336 229.488 111.635 262.527 73.8999 262.527Z" fill="white"/>
<path d="M73.8978 262.371C36.2411 262.371 5.60645 229.402 5.60645 188.878V79.0669C5.60645 67.3801 8.23176 55.7426 13.1961 45.4067C16.0835 39.3606 19.7805 33.739 24.1722 28.7243C37.0305 14.0149 55.1526 5.56528 73.8978 5.56528C92.644 5.56528 110.764 14.0149 123.63 28.7313C127.067 32.6511 130.121 37.0186 132.694 41.6966C138.903 52.9842 142.19 65.9071 142.19 79.0669V188.879C142.189 229.402 111.553 262.371 73.8978 262.371Z" fill="#FEFEFE"/>
<path d="M73.8986 262.215C36.3226 262.215 5.75146 229.317 5.75146 188.88V79.0671C5.75146 67.4004 8.37374 55.7892 13.3249 45.4785C16.2063 39.4435 19.8953 33.8349 24.2779 28.8303C37.104 14.1582 55.1817 5.72073 73.8986 5.72073C92.6156 5.72073 110.692 14.1582 123.525 28.8384C126.956 32.7501 130.004 37.1075 132.571 41.7754C138.765 53.0368 142.046 65.9285 142.046 79.0671V188.88C142.045 229.317 111.475 262.215 73.8986 262.215Z" fill="#FEFEFE"/>
<path d="M73.8965 262.059C36.4002 262.059 5.89453 229.23 5.89453 188.879V79.0669C5.89453 67.4194 8.51178 55.8363 13.4519 45.5498C16.3282 39.5259 20.0091 33.9305 24.3816 28.938C37.1755 14.3022 55.2109 5.8768 73.8965 5.8768C92.5822 5.8768 110.617 14.3022 123.418 28.9451C126.841 32.8487 129.882 37.197 132.443 41.8549C138.622 53.088 141.899 65.9515 141.899 79.0679V188.88C141.899 229.231 111.393 262.059 73.8965 262.059Z" fill="#FDFDFD"/>
<path d="M73.9008 261.904C36.484 261.904 6.04395 229.145 6.04395 188.879V79.067C6.04395 67.4386 8.65716 55.8828 13.5852 45.6215C16.4545 39.6107 20.1283 34.0264 24.4907 29.045C37.2533 14.4465 55.2433 6.03317 73.9008 6.03317C92.5582 6.03317 110.548 14.4465 123.316 29.053C126.734 32.9476 129.767 37.2869 132.323 41.9346C138.486 53.1396 141.758 65.9737 141.758 79.068V188.88C141.758 229.144 111.318 261.904 73.9008 261.904Z" fill="#FCFCFC"/>
<path d="M73.6911 271.678C36.3763 271.678 6.01709 237.731 6.01709 196.007V81.971C6.01709 69.9164 8.62478 57.9433 13.5379 47.3125C16.4005 41.0831 20.0652 35.2955 24.415 30.1351C37.1381 15.0128 55.0745 6.28955 73.6911 6.28955C92.3077 6.28955 110.244 15.0139 122.973 30.1424C126.381 34.1795 129.407 38.6751 131.956 43.4922C138.1 55.0988 141.365 68.3962 141.365 81.971V196.007C141.364 237.732 111.006 271.678 73.6911 271.678Z" fill="white"/>
<path d="M130.909 72.8619V172.903C130.909 204.339 105.332 229.916 73.8966 229.916C42.4614 229.916 16.8838 204.339 16.8838 172.903V72.8619C16.8838 63.4656 19.1714 54.5835 23.2152 46.759C25.655 42.0104 28.7501 37.6652 32.3796 33.8139C42.784 22.7541 57.5539 15.838 73.8966 15.838C90.2392 15.838 105.009 22.7541 115.414 33.8139C118.297 36.8687 120.838 40.2461 122.985 43.8756C128.016 52.3756 130.909 62.286 130.909 72.8619Z" fill="white"/>
<path d="M130.909 72.8619V172.903C130.909 204.339 105.332 229.916 73.8966 229.916C42.4614 229.916 16.8838 204.339 16.8838 172.903V72.8619C16.8838 57.7694 22.7716 44.0269 32.3796 33.815C42.784 22.7552 57.5539 15.8391 73.8966 15.8391C90.2392 15.8391 105.009 22.7552 115.414 33.815C125.023 44.0269 130.909 57.7694 130.909 72.8619Z" fill="#2A3072"/>
<g filter="url(#filter0_dd_8_1128)">
<path d="M73.6984 233.74C40.0381 233.74 12.6528 206.355 12.6528 172.695V72.6529C12.6528 62.9501 14.9979 53.2837 19.4339 44.699C22.0179 39.6712 25.3197 35.0053 29.2455 30.8395C40.7489 18.6122 56.9514 11.5973 73.6974 11.5973C90.4423 11.5973 106.646 18.6122 118.151 30.8425C121.229 34.103 123.957 37.7284 126.256 41.6139C131.808 50.9921 134.743 61.7262 134.743 72.6529V172.695C134.743 206.355 107.359 233.74 73.6984 233.74Z" fill="white"/>
</g>
<defs>
<filter id="filter0_dd_8_1128" x="7.34507" y="8.94341" width="132.705" height="232.758" filterUnits="userSpaceOnUse" color-interpolation-filters="sRGB">
<feFlood flood-opacity="0" result="BackgroundImageFix"/>
<feColorMatrix in="SourceAlpha" type="matrix" values="0 0 0 0 0 0 0 0 0 0 0 0 0 0 0 0 0 0 127 0" result="hardAlpha"/>
<feOffset dy="2.65388"/>
<feGaussianBlur stdDeviation="1.32694"/>
<feComposite in2="hardAlpha" operator="out"/>
<feColorMatrix type="matrix" values="0 0 0 0 0 0 0 0 0 0 0 0 0 0 0 0 0 0 0.25 0"/>
<feBlend mode="normal" in2="BackgroundImageFix" result="effect1_dropShadow_8_1128"/>
<feColorMatrix in="SourceAlpha" type="matrix" values="0 0 0 0 0 0 0 0 0 0 0 0 0 0 0 0 0 0 127 0" result="hardAlpha"/>
<feOffset dy="2.65388"/>
<feGaussianBlur stdDeviation="2.65388"/>
<feComposite in2="hardAlpha" operator="out"/>
<feColorMatrix type="matrix" values="0 0 0 0 0 0 0 0 0 0 0 0 0 0 0 0 0 0 0.25 0"/>
<feBlend mode="normal" in2="effect1_dropShadow_8_1128" result="effect2_dropShadow_8_1128"/>
<feBlend mode="normal" in="SourceGraphic" in2="effect2_dropShadow_8_1128" result="shape"/>
</filter>
</defs>
</svg>
