<svg width="202" height="314" viewBox="0 0 202 314" fill="none" xmlns="http://www.w3.org/2000/svg">
<path d="M19.0523 273.215C25.0606 285.662 28.4253 299.219 28.9342 313.031L23.4272 165.434C38.706 183.698 59.9711 195.946 83.4358 199.999C106.901 204.051 131.042 199.644 151.562 187.563C172.081 175.481 187.647 156.509 195.488 134.025C203.328 111.541 202.934 87.0034 194.376 64.7822C185.818 42.5611 169.652 24.0985 148.755 12.6816C127.858 1.2648 103.588 -2.36517 80.2652 2.4381C56.9426 7.24138 36.0815 20.1661 21.3966 38.9109C6.71166 57.6558 -0.84396 81.0041 0.0749443 104.798L5.582 252.299C10.9206 258.687 15.4453 265.712 19.0523 273.215ZM23.0818 83.2499C26.5797 67.9252 34.5433 53.9819 45.9654 43.183C57.3876 32.3842 71.7554 25.2147 87.252 22.5814C102.749 19.948 118.678 21.9689 133.026 28.3885C147.375 34.8081 159.497 45.3382 167.861 58.6472C176.224 71.9562 180.454 87.4464 180.014 103.159C179.575 118.872 174.486 134.101 165.391 146.922C156.296 159.742 143.604 169.578 128.919 175.185C114.235 180.793 98.2171 181.92 82.8919 178.424C72.6978 176.142 63.0563 171.864 54.5232 165.838C45.9902 159.812 38.7346 152.156 33.1745 143.312C27.6145 134.468 23.8601 124.611 22.1279 114.309C20.3957 104.007 20.7199 93.4643 23.0818 83.2883V83.2499Z" fill="#2A3072"/>
<path style="mix-blend-mode:multiply" d="M21.125 103.621C21.5958 116.713 25.2838 129.487 31.8633 140.816C38.4428 152.144 47.7111 161.677 58.8494 168.574L59.7512 192.866C45.6989 186.627 33.2704 177.239 23.4276 165.427L21.125 103.621Z" fill="url(#paint0_linear_1689_13098)"/>
<path style="mix-blend-mode:multiply" d="M5.58231 252.3C19.8709 269.403 28.0837 290.762 28.9345 313.031C28.9345 313.031 26.133 237.237 24.5212 194.275L2.78076 177.945C4.18151 214.96 5.58231 252.3 5.58231 252.3Z" fill="url(#paint1_linear_1689_13098)"/>
<path d="M180.273 100.951C180.273 116.716 175.598 132.126 166.84 145.234C158.081 158.342 145.632 168.559 131.068 174.592C116.503 180.625 100.476 182.203 85.0141 179.128C69.5522 176.052 55.3495 168.461 44.202 157.313C33.0546 146.166 25.4631 131.963 22.3876 116.501C19.312 101.039 20.8905 85.0124 26.9235 70.4476C32.9564 55.8828 43.1729 43.434 56.2808 34.6755C69.3888 25.917 84.7996 21.2422 100.564 21.2422C121.705 21.2422 141.979 29.64 156.927 44.5883C171.875 59.5365 180.273 79.8107 180.273 100.951Z" fill="url(#paint2_linear_1689_13098)"/>
<path d="M100.371 23.6953C85.0885 23.6991 70.1508 28.2342 57.4461 36.7273C44.7414 45.2203 34.8402 57.2897 28.9946 71.4096C23.149 85.5295 21.6216 101.066 24.6053 116.054C27.589 131.042 34.9499 144.808 45.7573 155.613C56.5646 166.418 70.3332 173.775 85.3219 176.755C100.311 179.735 115.846 178.204 129.965 172.355C144.083 166.506 156.15 156.602 164.64 143.895C173.13 131.188 177.661 116.249 177.661 100.967C177.661 90.8178 175.662 80.7682 171.778 71.3919C167.893 62.0157 162.2 53.4964 155.022 46.3209C147.845 39.1453 139.324 33.4539 129.947 29.5718C120.57 25.6896 110.52 23.6928 100.371 23.6953Z" fill="url(#paint3_linear_1689_13098)"/>
<path d="M18.7643 102.41C19.0311 103.81 19.1914 105.227 19.244 106.651C19.5004 108.908 18.8899 111.178 17.5362 113.002C16.8448 113.768 15.9973 114.377 15.0506 114.787C14.1039 115.198 13.0801 115.4 12.0484 115.381C10.9515 115.49 9.84408 115.376 8.79232 115.046C7.74055 114.716 6.76606 114.178 5.92729 113.463C4.25969 111.61 3.37887 109.18 3.47124 106.689C3.40151 105.475 3.40151 104.258 3.47124 103.043L18.7643 102.41ZM5.12142 104.905C5.08009 105.576 5.08009 106.248 5.12142 106.919C5.05152 107.813 5.18362 108.71 5.5079 109.545C5.83218 110.38 6.34025 111.132 6.99458 111.744C7.6489 112.356 8.43266 112.812 9.2876 113.08C10.1425 113.348 11.0468 113.419 11.9333 113.29C15.5982 113.194 17.8433 111.026 17.6898 106.804C17.6742 106.016 17.5777 105.232 17.4019 104.463L5.12142 104.905Z" fill="white"/>
<path d="M19.7433 124.329L4.2583 124.885V122.967L19.7625 122.41L19.7433 124.329Z" fill="white"/>
<path d="M6.96349 132.612C6.3571 133.723 6.0527 134.974 6.08078 136.239C6.08078 138.292 7.27046 139.443 8.84391 139.386C10.4174 139.328 11.0889 138.484 11.8181 136.354C12.624 133.802 13.8905 132.19 16.078 132.113C16.6916 132.121 17.2969 132.256 17.8559 132.509C18.4149 132.763 18.9156 133.129 19.3264 133.584C19.7373 134.04 20.0494 134.576 20.2432 135.158C20.4371 135.741 20.5085 136.357 20.4529 136.968C20.5351 138.16 20.3174 139.354 19.8196 140.441L18.1694 139.942C18.6139 139.015 18.831 137.996 18.8027 136.968C18.8027 134.857 17.4211 134.09 16.3657 134.128C14.9266 134.128 14.2358 135.145 13.4875 137.313C12.5664 139.98 11.3576 141.362 9.07416 141.439C6.79074 141.516 4.54574 139.827 4.43061 136.162C4.35345 134.78 4.64483 133.403 5.2749 132.171L6.96349 132.612Z" fill="white"/>
<path d="M6.00483 159.75C5.41646 158.475 5.1151 157.086 5.12213 155.682C5.02192 154.647 5.1455 153.602 5.4846 152.618C5.8237 151.635 6.37038 150.736 7.08746 149.983C7.80453 149.229 8.67525 148.639 9.6406 148.252C10.6059 147.864 11.6433 147.689 12.6823 147.738C13.7643 147.629 14.857 147.751 15.8882 148.096C16.9194 148.441 17.8655 149.002 18.6637 149.74C19.462 150.478 20.0943 151.378 20.5186 152.379C20.943 153.38 21.1497 154.46 21.1252 155.548C21.2213 156.81 21.0243 158.077 20.5495 159.251L18.8994 158.752C19.3177 157.758 19.5016 156.681 19.4367 155.605C19.4457 154.773 19.274 153.948 18.9334 153.188C18.5929 152.428 18.0915 151.752 17.464 151.204C16.8365 150.657 16.0978 150.253 15.2987 150.018C14.4997 149.784 13.6595 149.726 12.8359 149.849C12.017 149.786 11.1942 149.903 10.4255 150.192C9.65681 150.482 8.96084 150.936 8.38652 151.523C7.81219 152.11 7.3734 152.816 7.10116 153.591C6.82892 154.366 6.72982 155.191 6.81071 156.008C6.83344 157.137 7.09495 158.249 7.57818 159.27L6.00483 159.75Z" fill="white"/>
<path d="M21.3167 168.349L5.8125 168.905V166.986L21.2975 166.43L21.3167 168.349Z" fill="white"/>
<path d="M21.4319 176.445C21.6758 177.711 21.8169 178.994 21.854 180.283C22.0399 181.838 21.6359 183.406 20.7219 184.677C20.3332 185.144 19.846 185.518 19.2952 185.774C18.7444 186.029 18.1437 186.159 17.5366 186.155C16.9335 186.208 16.3259 186.141 15.7493 185.956C15.1726 185.771 14.6386 185.474 14.1786 185.08C13.5596 184.469 13.0705 183.74 12.7408 182.935C12.411 182.131 12.2473 181.268 12.2598 180.398C12.2204 179.859 12.2528 179.317 12.3558 178.786L6.13867 179.017V177.002L21.4319 176.445ZM14.0252 178.71C13.9211 179.26 13.8825 179.82 13.9101 180.379C14.006 182.797 15.234 184.217 17.3639 184.217C19.4938 184.217 20.3572 182.662 20.2805 180.379C20.2701 179.733 20.193 179.09 20.0502 178.46L14.0252 178.71Z" fill="white"/>
<path d="M22.1999 193.297V195.312L8.38439 195.791L8.61464 202.431H6.94526L6.63818 193.796L22.1999 193.297Z" fill="white"/>
<path d="M22.8329 210.735L7.32861 211.292V209.373L22.8329 208.816V210.735Z" fill="white"/>
<path d="M7.61572 219.381L23.12 218.844V221.031L15.4446 226.27C13.868 227.363 12.2205 228.35 10.5132 229.225C12.6275 228.963 14.7538 228.809 16.8837 228.764L23.3694 228.534V230.453L7.88439 231.009V228.994L15.5597 223.775C17.1884 222.656 18.8798 221.631 20.6255 220.705C18.7067 220.897 16.7878 221.012 14.2357 221.089L7.61572 221.338V219.381Z" fill="white"/>
<path d="M15.8672 246.901L15.6561 240.876L10.0724 241.087L10.3026 247.803H8.63325L8.32617 239.072L23.8112 238.535L24.1182 246.901H22.4488L22.2185 240.531L17.3063 240.703L17.5366 246.729L15.8672 246.901Z" fill="white"/>
<defs>
<linearGradient id="paint0_linear_1689_13098" x1="59.9114" y1="151.894" x2="24.5135" y2="153.28" gradientUnits="userSpaceOnUse">
<stop stop-color="white"/>
<stop offset="1" stop-color="#58595B"/>
</linearGradient>
<linearGradient id="paint1_linear_1689_13098" x1="47.8885" y1="218.286" x2="0.895061" y2="258.165" gradientUnits="userSpaceOnUse">
<stop stop-color="white"/>
<stop offset="1" stop-color="#58595B"/>
</linearGradient>
<linearGradient id="paint2_linear_1689_13098" x1="43.8628" y1="44.249" x2="156.383" y2="156.77" gradientUnits="userSpaceOnUse">
<stop stop-color="white"/>
<stop offset="1" stop-color="#B9B9B9"/>
</linearGradient>
<linearGradient id="paint3_linear_1689_13098" x1="23.099" y1="100.967" x2="177.642" y2="100.967" gradientUnits="userSpaceOnUse">
<stop stop-color="#EEF1F2"/>
<stop offset="1" stop-color="#F3F7F7"/>
</linearGradient>
</defs>
</svg>
