<svg width="324" height="201" viewBox="0 0 324 201" fill="none" xmlns="http://www.w3.org/2000/svg">
<path d="M286.543 141.437C297.351 132.818 309.831 126.539 323.193 122.997L180.508 161.201C194.889 142.249 202.078 118.808 200.794 95.0514C199.511 71.295 189.839 48.7648 173.501 31.4715C157.162 14.1782 135.217 3.24401 111.571 0.615348C87.926 -2.01331 64.1151 3.83415 44.3772 17.1168C24.6394 30.3995 10.2554 50.2554 3.78602 73.1499C-2.68341 96.0444 -0.818553 120.492 9.04865 142.14C18.9159 163.788 36.145 181.233 57.6692 191.368C79.1934 201.503 103.616 203.671 126.589 197.487L269.159 159.283C274.189 152.634 280.029 146.64 286.543 141.437ZM100.416 179.814C84.6966 179.818 69.3292 175.16 56.2569 166.43C43.1847 157.7 32.9948 145.29 26.9758 130.769C20.9568 116.247 19.3789 100.267 22.4419 84.8492C25.5048 69.4312 33.0711 55.2677 44.1836 44.1498C55.2962 33.0319 69.4559 25.4589 84.8725 22.3885C100.289 19.3181 116.27 20.8881 130.794 26.9002C145.318 32.9122 157.733 43.0961 166.47 56.1641C175.206 69.2321 179.871 84.5973 179.875 100.317C179.923 110.758 177.904 121.105 173.934 130.762C169.964 140.419 164.122 149.195 156.744 156.583C149.367 163.971 140.6 169.826 130.948 173.81C121.297 177.794 110.953 179.828 100.512 179.795L100.416 179.814Z" fill="#2A3072"/>
<path style="mix-blend-mode:multiply" d="M120.775 177.187C133.431 173.806 145.061 167.365 154.642 158.431C164.222 149.497 171.457 138.343 175.712 125.954L199.179 119.66C196.216 134.742 189.829 148.942 180.509 161.165L120.775 177.187Z" fill="url(#paint0_linear_1689_13100)"/>
<path style="mix-blend-mode:multiply" d="M269.158 159.239C282.642 141.489 301.654 128.736 323.193 122.992C323.193 122.992 249.912 142.584 208.388 153.694L197.221 178.523L269.158 159.239Z" fill="url(#paint1_linear_1689_13100)"/>
<path d="M180.182 100.31C180.182 116.075 175.507 131.486 166.748 144.594C157.99 157.702 145.541 167.918 130.976 173.951C116.411 179.984 100.384 181.563 84.9226 178.487C69.4606 175.411 55.2579 167.82 44.1105 156.672C32.963 145.525 25.3716 131.322 22.296 115.86C19.2204 100.398 20.799 84.3718 26.8319 69.8069C32.8649 55.2421 43.0813 42.7934 56.1893 34.0349C69.2973 25.2764 84.7081 20.6016 100.473 20.6016C110.941 20.599 121.307 22.659 130.979 26.6639C140.651 30.6687 149.439 36.5399 156.841 43.942C164.243 51.3441 170.114 60.1321 174.119 69.804C178.124 79.4758 180.184 89.8419 180.182 100.31Z" fill="url(#paint2_linear_1689_13100)"/>
<path d="M100.594 23C85.3071 23 70.3638 27.533 57.6534 36.0258C44.943 44.5187 35.0364 56.5898 29.1864 70.7129C23.3365 84.8359 21.8058 100.377 24.7881 115.369C27.7704 130.362 35.1317 144.134 45.941 154.944C56.7503 165.753 70.5222 173.114 85.5152 176.096C100.508 179.079 116.049 177.548 130.172 171.698C144.295 165.848 156.366 155.942 164.859 143.231C173.352 130.521 177.885 115.577 177.885 100.291C177.885 79.792 169.742 60.1328 155.247 45.6379C140.752 31.1431 121.093 23 100.594 23Z" fill="url(#paint3_linear_1689_13100)"/>
<path d="M136.894 176.452C138.065 175.925 139.278 175.495 140.52 175.166C142.001 174.658 143.615 174.699 145.068 175.281C145.603 175.566 146.071 175.962 146.441 176.442C146.812 176.921 147.076 177.474 147.217 178.064C147.404 178.64 147.473 179.247 147.421 179.851C147.368 180.454 147.194 181.04 146.91 181.575C146.452 182.308 145.85 182.941 145.141 183.436C144.432 183.931 143.631 184.277 142.784 184.453C142.264 184.603 141.731 184.699 141.192 184.741L142.784 190.747L140.865 191.265L136.894 176.452ZM140.731 183.168C141.284 183.131 141.83 183.034 142.362 182.88C144.703 182.266 145.816 180.75 145.26 178.678C144.703 176.605 143.072 176.126 140.942 176.759C140.324 176.899 139.725 177.111 139.158 177.392L140.731 183.168Z" fill="white"/>
<path d="M155.065 171.406L157.425 180.271C158.327 183.629 160.207 184.646 162.203 184.108C164.198 183.571 165.465 181.671 164.563 178.352L162.145 169.487L164.064 168.969L166.405 177.699C167.652 182.305 165.733 184.838 162.567 185.701C159.401 186.564 156.715 185.394 155.468 180.75L153.107 171.924L155.065 171.406Z" fill="white"/>
<path d="M172.009 167.125C173.18 166.575 174.401 166.138 175.655 165.82C177.152 165.227 178.82 165.227 180.317 165.82C180.799 166.08 181.22 166.441 181.551 166.878C181.882 167.315 182.116 167.818 182.236 168.353C182.472 169.209 182.424 170.119 182.099 170.946C181.774 171.773 181.189 172.472 180.433 172.939C181.106 173.041 181.739 173.321 182.269 173.749C182.798 174.177 183.204 174.739 183.445 175.376C184.076 176.72 184.827 178.005 185.69 179.213L183.771 179.751C183.032 178.705 182.39 177.593 181.852 176.431C180.855 174.512 179.838 173.917 178.015 174.339L176.096 174.819L177.842 181.305L175.923 181.823L172.009 167.125ZM175.846 173.438L177.765 172.9C179.818 172.344 180.835 170.866 180.375 169.063C179.914 167.259 178.226 166.664 176.173 167.144C175.509 167.292 174.865 167.517 174.254 167.815L175.846 173.438Z" fill="white"/>
<path d="M188.414 162.655C189.587 162.115 190.807 161.685 192.059 161.37C193.532 160.85 195.144 160.891 196.588 161.485C197.131 161.758 197.607 162.15 197.978 162.632C198.35 163.113 198.61 163.672 198.737 164.267C199.11 165.43 199.007 166.693 198.449 167.779C197.782 168.696 196.919 169.454 195.924 169.998C194.929 170.542 193.825 170.859 192.693 170.926L194.304 176.932L192.386 177.45L188.414 162.655ZM192.251 169.352C192.81 169.332 193.365 169.242 193.901 169.083C196.223 168.45 197.355 166.934 196.799 164.862C196.242 162.79 194.611 162.31 192.482 162.943C191.866 163.092 191.268 163.304 190.697 163.576L192.251 169.352Z" fill="white"/>
<path d="M219.423 162.004C220.804 167.166 218.406 170.735 214.587 171.771C210.769 172.807 207.027 170.504 205.818 166.014C204.609 161.524 206.662 157.341 210.654 156.267C214.645 155.192 218.233 157.533 219.423 162.004ZM207.91 165.362C208.754 168.566 211.268 170.984 214.319 170.159C217.369 169.334 218.348 166.053 217.446 162.656C216.64 159.663 214.261 156.9 211.037 157.84C207.814 158.78 206.989 162.081 207.871 165.362H207.91Z" fill="white"/>
<path d="M227.54 165.499C228.764 165.838 230.057 165.838 231.281 165.499C233.2 164.961 234.121 163.58 233.718 162.102C233.315 160.625 232.337 160.184 230.111 159.877C227.425 159.665 225.582 158.802 225.007 156.691C224.88 156.085 224.881 155.459 225.008 154.853C225.136 154.247 225.389 153.675 225.749 153.171C226.11 152.668 226.572 152.245 227.104 151.929C227.637 151.614 228.23 151.412 228.844 151.338C229.981 150.979 231.192 150.926 232.356 151.184L232.241 152.892C231.246 152.64 230.204 152.64 229.209 152.892C227.156 153.448 226.715 154.811 226.983 155.885C227.367 157.286 228.461 157.804 230.821 157.977C233.603 158.284 235.234 159.167 235.81 161.354C236.386 163.542 235.253 166.132 231.723 167.111C230.391 167.476 228.986 167.476 227.655 167.111L227.54 165.499Z" fill="white"/>
<path d="M249.74 154.559L243.984 156.114L245.442 161.525L251.928 159.779L252.35 161.41L243.926 163.655L239.916 148.688L248.013 146.52L248.436 148.131L242.295 149.782L243.562 154.521L249.318 152.967L249.74 154.559Z" fill="white"/>
<defs>
<linearGradient id="paint0_linear_1689_13100" x1="155.385" y1="131.597" x2="164.747" y2="165.857" gradientUnits="userSpaceOnUse">
<stop stop-color="white"/>
<stop offset="1" stop-color="#58595B"/>
</linearGradient>
<linearGradient id="paint1_linear_1689_13100" x1="226.586" y1="125.595" x2="275.943" y2="162.538" gradientUnits="userSpaceOnUse">
<stop stop-color="white"/>
<stop offset="1" stop-color="#58595B"/>
</linearGradient>
<linearGradient id="paint2_linear_1689_13100" x1="43.7713" y1="43.5892" x2="156.292" y2="156.129" gradientUnits="userSpaceOnUse">
<stop stop-color="white"/>
<stop offset="1" stop-color="#B9B9B9"/>
</linearGradient>
<linearGradient id="paint3_linear_1689_13100" x1="23.3222" y1="100.291" x2="177.865" y2="100.291" gradientUnits="userSpaceOnUse">
<stop stop-color="#EEF1F2"/>
<stop offset="1" stop-color="#F3F7F7"/>
</linearGradient>
</defs>
</svg>
