<svg width="292" height="228" viewBox="0 0 292 228" fill="none" xmlns="http://www.w3.org/2000/svg">
<path d="M41.0449 9.17953C27.5647 12.2774 13.5876 12.5388 0.000976562 9.94705C0.000976563 9.94705 145.123 37.444 145.123 37.444C123.909 48.2823 107.231 66.2978 98.0575 88.2827C88.8842 110.268 87.8115 134.795 95.0303 157.496C102.249 180.198 117.291 199.601 137.477 212.25C157.663 224.899 181.683 229.973 205.261 226.569C228.838 223.165 250.442 211.503 266.225 193.66C282.009 175.817 290.947 152.952 291.449 129.135C291.951 105.319 283.984 82.0968 268.966 63.6049C253.948 45.1131 232.855 32.5515 209.442 28.1569L64.4164 0.698242C57.0087 4.48591 49.1577 7.33501 41.0449 9.17953ZM225.253 55.3851C239.416 62.205 251.238 73.0715 259.225 86.6103C267.212 100.149 271.005 115.752 270.124 131.447C269.243 147.141 263.729 162.222 254.277 174.782C244.825 187.342 231.861 196.818 217.025 202.01C202.188 207.203 186.145 207.879 170.923 203.954C155.702 200.028 141.987 191.677 131.512 179.957C121.037 168.237 114.272 153.674 112.074 138.109C109.875 122.545 112.342 106.678 119.161 92.5146C123.647 83.0688 129.962 74.6067 137.741 67.6185C145.52 60.6303 154.608 55.2548 164.479 51.8033C174.35 48.3518 184.807 46.8928 195.246 47.511C205.685 48.1291 215.897 50.812 225.292 55.4043L225.253 55.3851Z" fill="#2A3072"/>
<path style="mix-blend-mode:multiply" d="M205.91 48.9499C193.042 46.4984 179.767 47.2518 167.258 51.1436C154.749 55.0355 143.391 61.9461 134.184 71.266L110.314 66.7375C119.531 54.4347 131.453 44.416 145.16 37.4561L205.91 48.9499Z" fill="url(#paint0_linear_1689_13096)"/>
<path style="mix-blend-mode:multiply" d="M64.4154 0.713867C44.5616 10.8493 21.9034 14.1026 0 9.96268C0 9.96268 74.5276 24.1045 116.78 32.0869L137.619 14.5487L64.4154 0.713867Z" fill="url(#paint1_linear_1689_13096)"/>
<path d="M270.537 127.004C270.537 142.773 265.86 158.186 257.098 171.296C248.337 184.406 235.883 194.622 221.314 200.653C206.745 206.684 190.714 208.258 175.25 205.176C159.786 202.094 145.583 194.495 134.439 183.34C123.295 172.185 115.709 157.975 112.642 142.508C109.575 127.041 111.165 111.012 117.21 96.4481C123.254 81.8846 133.483 69.4411 146.601 60.6919C159.719 51.9427 175.137 47.2808 190.905 47.2959C212.032 47.3163 232.287 55.7231 247.218 70.6691C262.15 85.6152 270.537 105.878 270.537 127.004Z" fill="url(#paint2_linear_1689_13096)"/>
<path d="M190.895 49.8232C175.612 49.8232 160.672 54.3551 147.965 62.8458C135.258 71.3366 125.353 83.4047 119.505 97.5242C113.656 111.644 112.126 127.181 115.108 142.17C118.089 157.159 125.449 170.927 136.255 181.734C147.062 192.541 160.831 199.9 175.82 202.882C190.809 205.863 206.346 204.333 220.465 198.484C234.585 192.636 246.653 182.732 255.144 170.025C263.634 157.317 268.166 142.378 268.166 127.095C268.166 106.601 260.025 86.9468 245.534 72.4555C231.043 57.9643 211.388 49.8232 190.895 49.8232Z" fill="url(#paint3_linear_1689_13096)"/>
<path d="M177.474 33.4139C178.452 28.1563 182.156 25.9688 186.051 26.6979C189.946 27.4271 192.325 31.092 191.462 35.7164C190.599 40.3408 186.953 43.1616 182.885 42.394C178.817 41.6265 176.668 37.9615 177.474 33.4139ZM189.351 35.3327C189.965 32.0707 188.737 28.8278 185.648 28.2522C182.559 27.6765 180.218 30.171 179.584 33.6633C179.009 36.6951 180.007 40.1682 183.288 40.7822C186.569 41.3962 188.776 38.7098 189.39 35.3711L189.351 35.3327Z" fill="white"/>
<path d="M169.07 39.3562C167.782 39.3256 166.499 39.1908 165.232 38.9532C163.673 38.7859 162.231 38.0478 161.184 36.8809C160.822 36.3948 160.569 35.8361 160.443 35.2433C160.317 34.6504 160.321 34.0374 160.455 33.4461C160.534 32.847 160.732 32.2699 161.039 31.7491C161.345 31.2282 161.754 30.7744 162.239 30.4144C162.969 29.9495 163.787 29.6382 164.641 29.4997C165.495 29.3611 166.369 29.3981 167.209 29.6085C167.741 29.6909 168.262 29.8325 168.763 30.0306L169.914 23.9287L171.833 24.2933L169.07 39.3562ZM168.456 31.6808C167.947 31.4586 167.412 31.3037 166.863 31.2203C164.484 30.7789 162.834 31.6616 162.431 33.7724C162.028 35.8831 163.294 37.0152 165.482 37.4181C166.112 37.5576 166.756 37.622 167.401 37.61L168.456 31.6808Z" fill="white"/>
<path d="M149.881 34.238L154.506 35.1015L154.199 36.7901L142.916 34.6794L143.223 33.01L147.886 33.8734L150.419 20.2881L152.338 20.6718L149.881 34.238Z" fill="white"/>
<path d="M134.723 33.1444L137.563 17.8896L139.481 18.2734L136.622 33.509L134.723 33.1444Z" fill="white"/>
<path d="M115.496 20.684C115.208 22.8331 114.862 25.4043 114.498 27.304C115.361 25.6154 116.417 23.8309 117.51 21.8736L121.578 14.9658L123.075 15.2537L124.188 22.929C124.495 25.2125 124.744 27.304 124.84 29.1844C125.243 27.2656 125.838 24.7519 126.395 22.4877L128.026 16.0212L129.944 16.3858L126.107 31.4295L123.593 30.9689L122.365 23.1017C122.097 21.1829 121.885 19.264 121.789 17.6714C121.118 19.1297 120.254 20.7032 119.218 22.5069L115.131 29.3763L112.617 28.8966L114.536 13.5459L116.455 13.9105L115.496 20.684Z" fill="white"/>
<path d="M102.045 27.0354L104.904 11.7998L106.822 12.1644L103.983 27.4L102.045 27.0354Z" fill="white"/>
<path d="M96.7486 12.7631C95.8072 11.9185 94.6525 11.3479 93.4098 11.1129C91.395 10.7291 90.0135 11.5734 89.7257 13.0317C89.4379 14.4901 90.1286 15.4303 92.0474 16.6008C94.3692 17.9439 95.674 19.5174 95.271 21.6665C95.1293 22.2707 94.8634 22.8388 94.4901 23.3345C94.1168 23.8303 93.6443 24.243 93.1029 24.5462C92.5614 24.8495 91.9627 25.0367 91.3449 25.0959C90.7272 25.1551 90.1037 25.085 89.5145 24.8901C88.3385 24.7163 87.2278 24.2403 86.2909 23.5086L87.1352 22.0119C87.9338 22.6618 88.8847 23.0976 89.8983 23.2783C91.9707 23.6621 93.0069 22.5684 93.1988 21.5322C93.4674 20.1122 92.6615 19.2295 90.7043 18.0207C88.325 16.5432 87.2312 15.0465 87.6533 12.8206C88.0755 10.5948 90.2054 8.75273 93.8128 9.42432C95.1787 9.64921 96.4583 10.2393 97.5162 11.1321L96.7486 12.7631Z" fill="white"/>
<path d="M67.1408 11.6682C66.853 13.8173 66.5267 16.4078 66.143 18.3074C67.0064 16.6188 68.0618 14.8535 69.1555 12.8771L73.2235 5.98844L74.7202 6.27626L75.8332 13.9516C76.1594 16.235 76.3896 18.3266 76.4855 20.207C76.8693 18.2882 77.4641 15.7937 78.0206 13.5295L79.6516 7.06299L81.5705 7.42757L77.6944 22.6056L75.1999 22.1259L73.9718 14.2778C73.684 12.359 73.473 10.4401 73.3962 8.84749C72.7246 10.325 71.8611 11.8985 70.8249 13.683L66.7378 20.5524L64.2241 20.0919L66.143 4.74121L68.0618 5.10579L67.1408 11.6682Z" fill="white"/>
<defs>
<linearGradient id="paint0_linear_1689_13096" x1="155" y1="75.0621" x2="161.414" y2="40.1382" gradientUnits="userSpaceOnUse">
<stop stop-color="white"/>
<stop offset="1" stop-color="#58595B"/>
</linearGradient>
<linearGradient id="paint1_linear_1689_13096" x1="88.1973" y1="49.406" x2="59.7625" y2="-5.29654" gradientUnits="userSpaceOnUse">
<stop stop-color="white"/>
<stop offset="1" stop-color="#58595B"/>
</linearGradient>
<linearGradient id="paint2_linear_1689_13096" x1="134.108" y1="70.2836" x2="246.628" y2="182.823" gradientUnits="userSpaceOnUse">
<stop stop-color="white"/>
<stop offset="1" stop-color="#B9B9B9"/>
</linearGradient>
<linearGradient id="paint3_linear_1689_13096" x1="113.527" y1="127.095" x2="268.09" y2="127.095" gradientUnits="userSpaceOnUse">
<stop stop-color="#EEF1F2"/>
<stop offset="1" stop-color="#F3F7F7"/>
</linearGradient>
</defs>
</svg>
