<svg width="257" height="262" viewBox="0 0 257 262" fill="none" xmlns="http://www.w3.org/2000/svg">
<path d="M248.592 41.0802C248.588 27.2582 251.443 13.5849 256.977 0.918945L197.857 136.293C192.009 113.232 178.166 92.995 158.795 79.1841C139.423 65.3731 115.779 58.8846 92.0709 60.8736C68.3633 62.8626 46.1306 73.2 29.3308 90.0455C12.5309 106.891 2.254 129.152 0.329427 152.865C-1.59514 176.578 4.95748 200.204 18.821 219.538C32.6844 238.873 52.9592 252.66 76.0358 258.446C99.1124 264.232 123.494 261.641 144.839 251.135C166.184 240.629 183.109 222.889 192.6 201.073L251.623 65.7757C249.586 57.7026 248.568 49.4063 248.592 41.0802ZM162.589 210.456C152.79 222.747 139.567 231.856 124.591 236.632C109.615 241.408 93.5594 241.636 78.454 237.287C63.3486 232.938 49.8721 224.207 39.7285 212.199C29.5849 200.191 23.2297 185.445 21.4667 169.825C19.7038 154.205 22.6122 138.413 29.8241 124.446C37.0359 110.479 48.2275 98.9646 61.9834 91.3581C75.7394 83.7515 91.442 80.3948 107.106 81.7124C122.769 83.0301 137.691 88.9628 149.982 98.7605C158.177 105.243 165.007 113.284 170.08 122.418C175.153 131.553 178.368 141.601 179.54 151.984C180.712 162.366 179.817 172.878 176.908 182.914C173.999 192.949 169.132 202.31 162.589 210.456Z" fill="#2A3072"/>
<path style="mix-blend-mode:multiply" d="M173.181 192.984C178.431 180.995 180.651 167.898 179.647 154.848C178.643 141.798 174.446 129.196 167.425 118.15L177.153 95.8721C187.061 107.578 194.144 121.404 197.858 136.283L173.181 192.984Z" fill="url(#paint0_linear_1689_13094)"/>
<path style="mix-blend-mode:multiply" d="M251.681 65.7678C246.19 44.161 248.054 21.341 256.977 0.911133C256.977 0.911133 226.64 70.4306 209.37 109.805L221.824 134.021L251.681 65.7678Z" fill="url(#paint1_linear_1689_13094)"/>
<path d="M180.166 160.87C180.17 176.636 175.498 192.048 166.742 205.159C157.986 218.269 145.539 228.489 130.974 234.525C116.41 240.561 100.382 242.142 84.919 239.068C69.4558 235.995 55.2513 228.405 44.1019 217.258C32.9525 206.112 25.3592 191.909 22.282 176.447C19.2049 160.984 20.7823 144.956 26.8147 130.39C32.8471 115.825 43.0635 103.375 56.1719 94.6153C69.2803 85.856 84.6919 81.1807 100.458 81.1807C121.594 81.1807 141.866 89.5759 156.813 104.52C171.761 119.464 180.161 139.733 180.166 160.87Z" fill="url(#paint2_linear_1689_13094)"/>
<path d="M100.298 83.7627C85.0102 83.7627 70.0661 88.2962 57.3552 96.7899C44.6444 105.284 34.7378 117.356 28.8884 131.48C23.039 145.604 21.5096 161.146 24.4934 176.139C27.4772 191.133 34.8404 204.905 45.6517 215.713C56.4629 226.522 70.2365 233.881 85.2307 236.861C100.225 239.842 115.766 238.308 129.889 232.455C144.012 226.602 156.081 216.693 164.572 203.98C173.062 191.267 177.592 176.322 177.588 161.034C177.588 150.885 175.589 140.836 171.705 131.459C167.82 122.083 162.127 113.564 154.949 106.388C147.772 99.2127 139.251 93.5213 129.874 89.6392C120.497 85.757 110.447 83.7602 100.298 83.7627Z" fill="url(#paint3_linear_1689_13094)"/>
<path d="M166.409 213.431C166.749 212.19 167.185 210.978 167.713 209.804C168.241 208.334 169.294 207.111 170.669 206.37C171.219 206.114 171.818 205.981 172.424 205.981C173.031 205.981 173.63 206.114 174.18 206.37C174.746 206.587 175.262 206.916 175.698 207.339C176.133 207.761 176.478 208.267 176.713 208.826C176.99 209.643 177.101 210.507 177.038 211.367C176.976 212.227 176.741 213.066 176.348 213.834C176.143 214.337 175.879 214.813 175.562 215.254L181.318 217.806L180.493 219.725L166.409 213.431ZM174.084 214.659C174.424 214.219 174.701 213.735 174.909 213.22C175.888 211.013 175.427 209.19 173.47 208.308C171.513 207.425 170.112 208.308 169.21 210.418C168.927 210.985 168.715 211.585 168.577 212.203L174.084 214.659Z" fill="white"/>
<path d="M185.482 188.92C190.356 191.108 191.622 195.233 190.01 198.841C188.398 202.448 184.254 203.906 179.975 201.987C175.696 200.069 173.796 195.847 175.485 192.086C177.173 188.325 181.299 187.04 185.482 188.92ZM180.8 199.992C183.832 201.354 187.266 200.932 188.475 198.073C189.684 195.214 187.842 192.317 184.638 190.897C181.817 189.63 178.229 189.784 176.962 192.815C175.696 195.847 177.691 198.61 180.8 199.992Z" fill="white"/>
<path d="M195.67 185.583L181.509 179.231L182.411 177.313L191.602 175.989C193.508 175.701 195.432 175.54 197.359 175.509C195.35 174.81 193.377 174.009 191.449 173.11L185.52 170.462L186.287 168.735L200.448 175.087L199.623 177.006L190.432 178.291C188.474 178.579 186.5 178.752 184.522 178.809C186.441 179.5 188.072 180.229 190.432 181.285L196.476 183.99L195.67 185.583Z" fill="white"/>
<path d="M201.407 166.802C202.444 166.076 203.271 165.09 203.806 163.943C204.024 163.611 204.169 163.238 204.232 162.846C204.295 162.455 204.274 162.055 204.17 161.672C204.067 161.289 203.884 160.933 203.632 160.627C203.381 160.32 203.067 160.07 202.712 159.894C201.388 159.299 200.295 159.721 198.702 161.314C196.783 163.233 195.018 164.134 192.945 163.233C192.398 162.954 191.913 162.566 191.522 162.092C191.131 161.618 190.842 161.069 190.673 160.479C190.504 159.888 190.458 159.269 190.539 158.66C190.619 158.051 190.825 157.465 191.142 156.939C191.588 155.836 192.308 154.866 193.233 154.118L194.5 155.289C193.667 155.905 193.007 156.724 192.581 157.668C191.717 159.587 192.581 160.853 193.502 161.295C194.826 161.889 195.862 161.295 197.493 159.702C199.412 157.783 201.196 157.016 203.25 157.956C205.303 158.896 206.588 161.391 205.168 164.729C204.617 166 203.744 167.104 202.636 167.934L201.407 166.802Z" fill="white"/>
<path d="M196.937 144.806L211.098 151.157L210.273 152.98L196.112 146.648L196.937 144.806Z" fill="white"/>
<path d="M200.448 137.493C200.724 136.303 201.123 135.146 201.638 134.039C202.127 132.599 203.114 131.381 204.42 130.604C204.885 130.362 205.402 130.235 205.927 130.235C206.451 130.235 206.968 130.362 207.433 130.604C208.139 130.941 208.717 131.496 209.084 132.187C209.45 132.878 209.584 133.668 209.467 134.442C210.001 133.697 210.775 133.159 211.659 132.918C212.543 132.677 213.483 132.748 214.322 133.118C214.854 133.348 215.331 133.688 215.725 134.114C216.118 134.54 216.418 135.044 216.605 135.593C217.001 137.466 216.694 139.42 215.741 141.081C215.33 142.036 214.849 142.96 214.302 143.844L200.448 137.493ZM207.049 138.279L207.797 136.61C208.661 134.691 208.162 133.098 206.8 132.484C205.13 131.736 203.921 132.715 203.096 134.557C202.832 135.087 202.632 135.648 202.501 136.226L207.049 138.279ZM213.842 141.311C214.141 140.836 214.398 140.335 214.609 139.814C215.454 137.896 215.55 135.977 213.477 134.941C211.405 133.904 210.004 135.382 209.121 137.377L208.45 138.893L213.842 141.311Z" fill="white"/>
<path d="M208.047 120.001L222.208 126.352L221.402 128.175L207.241 121.824L208.047 120.001Z" fill="white"/>
<path d="M211.29 112.61L212.115 110.787L224.741 116.428L227.446 110.384L228.981 111.075L225.451 118.942L211.29 112.61Z" fill="white"/>
<path d="M218.524 96.665L232.666 102.997L231.86 104.916L217.699 98.5839L218.524 96.665Z" fill="white"/>
<path d="M224.587 87.261L222.669 91.5784L221.114 90.8685L225.796 80.3916L227.37 81.1016L225.451 85.419L238.058 91.0603L237.233 92.9792L224.587 87.261Z" fill="white"/>
<path d="M244.236 77.1896L238.154 74.5224L227.984 75.3475L228.924 73.2751L233.721 73.0257C235.045 73.0257 236.081 73.0257 237.271 73.0257C236.523 72.2006 235.813 71.3179 234.988 70.2818L231.994 66.4441L232.935 64.3525L238.94 72.7571L244.966 75.4434L244.236 77.1896Z" fill="white"/>
<path d="M128.779 239.194C129.859 238.488 131.003 237.884 132.195 237.39C133.608 236.62 135.258 236.408 136.819 236.796C137.339 236.983 137.812 237.281 138.206 237.669C138.6 238.056 138.906 238.524 139.103 239.041C139.453 239.858 139.531 240.766 139.323 241.63C139.116 242.495 138.635 243.269 137.951 243.838C138.624 243.838 139.285 244.016 139.868 244.353C140.451 244.69 140.934 245.174 141.271 245.757C142.096 246.981 143.02 248.136 144.034 249.21L142.115 250.016C141.218 249.089 140.409 248.08 139.697 247.004C138.45 245.219 137.357 244.797 135.668 245.45L133.922 246.179L136.551 252.377L134.632 253.163L128.779 239.194ZM133.385 244.951L135.303 244.145C135.722 244.034 136.112 243.836 136.448 243.564C136.784 243.292 137.059 242.951 137.255 242.565C137.451 242.18 137.563 241.757 137.584 241.324C137.604 240.892 137.533 240.461 137.376 240.058C136.589 238.139 134.92 237.966 132.962 238.791C132.339 239.022 131.752 239.338 131.216 239.731L133.385 244.951Z" fill="white"/>
<path d="M154.435 234.532L149.388 237.852L152.477 242.514L158.081 238.811L159.002 240.212L151.806 245.086L143.267 232.134L150.252 227.528L151.173 228.929L145.858 232.441L148.563 236.528L153.59 233.208L154.435 234.532Z" fill="white"/>
<path d="M164.068 233.096C165.303 232.826 166.442 232.23 167.368 231.369C167.699 231.15 167.978 230.863 168.188 230.527C168.398 230.19 168.533 229.813 168.584 229.42C168.635 229.026 168.601 228.627 168.484 228.248C168.367 227.869 168.169 227.52 167.905 227.224C166.908 226.169 165.737 226.131 163.665 226.975C161.209 228.069 159.175 228.184 157.678 226.61C157.276 226.144 156.975 225.6 156.794 225.012C156.613 224.424 156.556 223.805 156.626 223.194C156.697 222.583 156.893 221.993 157.203 221.461C157.512 220.929 157.929 220.468 158.426 220.105C159.257 219.253 160.295 218.631 161.439 218.302L162.149 219.856C161.161 220.126 160.256 220.64 159.52 221.353C157.966 222.811 158.254 224.269 158.983 225.037C159.712 225.804 161.151 225.977 163.281 225.037C165.891 223.982 167.713 223.982 169.287 225.632C170.86 227.282 171.071 230.103 168.404 232.616C167.402 233.546 166.181 234.206 164.854 234.535L164.068 233.096Z" fill="white"/>
<defs>
<linearGradient id="paint0_linear_1689_13094" x1="159.039" y1="137.779" x2="191.66" y2="151.806" gradientUnits="userSpaceOnUse">
<stop stop-color="white"/>
<stop offset="1" stop-color="#58595B"/>
</linearGradient>
<linearGradient id="paint1_linear_1689_13094" x1="198.826" y1="78.092" x2="258.482" y2="62.5352" gradientUnits="userSpaceOnUse">
<stop stop-color="white"/>
<stop offset="1" stop-color="#58595B"/>
</linearGradient>
<linearGradient id="paint2_linear_1689_13094" x1="43.7559" y1="104.168" x2="156.277" y2="216.708" gradientUnits="userSpaceOnUse">
<stop stop-color="white"/>
<stop offset="1" stop-color="#B9B9B9"/>
</linearGradient>
<linearGradient id="paint3_linear_1689_13094" x1="23.0261" y1="161.053" x2="177.569" y2="161.053" gradientUnits="userSpaceOnUse">
<stop stop-color="#EEF1F2"/>
<stop offset="1" stop-color="#F3F7F7"/>
</linearGradient>
</defs>
</svg>
