<svg width="222" height="290" viewBox="0 0 222 290" fill="none" xmlns="http://www.w3.org/2000/svg">
<path d="M184.361 272.255C197.843 275.324 210.544 281.152 221.663 289.371L102.829 201.699C126.593 201.122 149.382 192.132 167.138 176.328C184.895 160.525 196.468 138.933 199.798 115.397C203.127 91.8599 197.997 67.9055 185.32 47.7968C172.644 27.6881 153.243 12.7298 130.572 5.58442C107.9 -1.56098 83.4284 -0.429935 61.5126 8.77624C39.5967 17.9824 21.6586 34.6664 10.8908 55.8587C0.123055 77.051 -2.7757 101.376 2.71058 124.506C8.19686 147.635 21.7122 168.067 40.851 182.165L159.608 269.818C167.928 269.598 176.243 270.417 184.361 272.255ZM38.3949 150.696C28.5997 138.403 22.6697 123.48 21.3549 107.817C20.0402 92.1529 23.3998 76.451 31.0087 62.6965C38.6177 48.942 50.1343 37.7526 64.1024 30.5432C78.0704 23.3339 93.8627 20.4283 109.482 22.1939C125.101 23.9595 139.847 30.317 151.853 40.4625C163.859 50.608 172.587 64.0858 176.934 79.1918C181.281 94.2977 181.05 110.353 176.272 125.328C171.494 140.303 162.383 153.525 150.09 163.322C141.946 169.872 132.585 174.743 122.548 177.655C112.511 180.567 101.996 181.462 91.6113 180.288C81.2264 179.114 71.1769 175.894 62.043 170.815C52.9091 165.736 44.8717 158.898 38.3949 150.696Z" fill="#2A3072"/>
<path style="mix-blend-mode:multiply" d="M53.0742 164.902C63.6033 172.695 75.8888 177.776 88.8462 179.696C101.804 181.617 115.035 180.319 127.372 175.916L146.925 190.346C133.277 197.452 118.174 201.313 102.791 201.629L53.0742 164.902Z" fill="url(#paint0_linear_1689_13099)"/>
<path style="mix-blend-mode:multiply" d="M159.608 269.749C181.896 269.221 203.726 276.12 221.663 289.36C221.663 289.36 160.644 244.286 126.048 218.766L99.6636 225.52L159.608 269.749Z" fill="url(#paint1_linear_1689_13099)"/>
<path d="M180.215 101.123C180.215 116.887 175.541 132.298 166.782 145.406C158.024 158.514 145.575 168.731 131.01 174.764C116.445 180.797 100.418 182.375 84.9565 179.299C69.4946 176.224 55.2919 168.632 44.1444 157.485C32.997 146.338 25.4055 132.135 22.33 116.673C19.2544 101.211 20.8328 85.1843 26.8658 70.6194C32.8987 56.0546 43.1151 43.6058 56.2231 34.8474C69.3311 26.0889 84.742 21.4141 100.507 21.4141C121.647 21.4141 141.921 29.8119 156.869 44.7601C171.817 59.7084 180.215 79.9825 180.215 101.123Z" fill="url(#paint2_linear_1689_13099)"/>
<path d="M100.794 24.0586C85.5114 24.0624 70.5736 28.5975 57.8689 37.0905C45.1642 45.5835 35.2631 57.653 29.4175 71.7729C23.572 85.8928 22.0444 101.429 25.0281 116.417C28.0118 131.405 35.3728 145.172 46.1802 155.976C56.9876 166.781 70.756 174.138 85.7447 177.118C100.733 180.098 116.269 178.567 130.388 172.718C144.506 166.869 156.573 156.965 165.063 144.258C173.553 131.551 178.084 116.612 178.084 101.33C178.084 91.1811 176.085 81.1315 172.2 71.7552C168.316 62.3789 162.622 53.8597 155.445 46.6841C148.268 39.5086 139.747 33.8172 130.37 29.935C120.993 26.0529 110.943 24.0561 100.794 24.0586Z" fill="url(#paint3_linear_1689_13099)"/>
<path d="M67.6773 198.431C66.3055 198.07 65.0288 197.416 63.9356 196.512C63.0588 195.95 62.3137 195.205 61.7512 194.329C61.1887 193.452 60.8219 192.465 60.6762 191.434C60.5304 190.403 60.6091 189.352 60.9067 188.354C61.2043 187.356 61.7138 186.434 62.4005 185.651C62.9858 184.738 63.758 183.959 64.6662 183.366C65.5745 182.773 66.5981 182.379 67.6697 182.21C68.7412 182.042 69.8363 182.102 70.8828 182.388C71.9292 182.673 72.9034 183.177 73.7409 183.867C74.7904 184.58 75.6685 185.517 76.312 186.611L74.9497 187.647C74.4132 186.708 73.6801 185.896 72.8007 185.267C72.1545 184.735 71.3999 184.349 70.5895 184.138C69.7791 183.927 68.9323 183.895 68.1083 184.045C67.2843 184.195 66.503 184.523 65.8188 185.005C65.1345 185.488 64.5639 186.115 64.1467 186.841C63.5914 187.447 63.1754 188.167 62.9276 188.951C62.6799 189.735 62.6065 190.564 62.7125 191.379C62.8185 192.194 63.1013 192.976 63.5413 193.671C63.9813 194.365 64.5678 194.955 65.2596 195.399C66.1537 196.077 67.1798 196.561 68.2721 196.819L67.6773 198.431Z" fill="white"/>
<path d="M88.0931 204.228C84.927 208.526 80.6481 208.89 77.4436 206.549C74.2391 204.209 73.6059 199.872 76.4842 196.073C79.3624 192.273 83.7757 191.333 87.1145 193.77C90.4533 196.207 90.8179 200.505 88.0931 204.228ZM78.2303 197.32C76.3114 199.987 75.9661 203.441 78.5181 205.302C81.0702 207.164 84.2747 205.878 86.3278 203.038C88.2467 200.563 88.7647 197.013 86.0784 195.036C83.392 193.06 80.3218 194.557 78.2303 197.32Z" fill="white"/>
<path d="M100.009 203.615L94.5791 211.021C92.526 213.823 92.9098 215.915 94.5791 217.143C96.2485 218.371 98.5127 218.14 100.547 215.377L105.977 207.971L107.608 209.179L102.254 216.471C99.4338 220.309 96.2678 220.405 93.543 218.39C90.8183 216.375 90.1466 213.631 92.9865 209.755L98.3784 202.387L100.009 203.615Z" fill="white"/>
<path d="M113.998 214.07C115.162 214.631 116.267 215.306 117.298 216.085C118.683 216.902 119.711 218.211 120.176 219.75C120.272 220.293 120.254 220.85 120.122 221.386C119.989 221.921 119.747 222.423 119.409 222.859C118.892 223.582 118.153 224.116 117.304 224.379C116.455 224.643 115.543 224.621 114.708 224.317C115.045 224.9 115.222 225.562 115.222 226.236C115.222 226.909 115.045 227.571 114.708 228.155C114.073 229.49 113.553 230.876 113.153 232.299L111.484 231.071C111.829 229.837 112.285 228.636 112.846 227.483C113.748 225.564 113.556 224.336 112.117 223.204L110.601 222.091L106.629 227.521L105.018 226.332L113.998 214.07ZM111.446 220.882L113.096 222.11C113.405 222.412 113.774 222.646 114.179 222.795C114.585 222.945 115.017 223.007 115.448 222.978C115.879 222.949 116.299 222.829 116.681 222.627C117.062 222.425 117.397 222.144 117.663 221.803C118.852 220.172 118.181 218.618 116.492 217.352C115.965 216.941 115.392 216.593 114.785 216.315L111.446 220.882Z" fill="white"/>
<path d="M123.668 234.082L119.485 237.056L117.816 235.828L131.248 226.445L133.166 227.865L128.293 243.504L126.566 242.237L128.12 237.325L123.668 234.082ZM128.696 235.809L130.096 231.319C130.422 230.302 130.787 229.4 131.132 228.556C130.403 229.151 129.636 229.765 128.83 230.36L124.992 233.065L128.696 235.809Z" fill="white"/>
<path d="M143.49 253.802C141.929 253.34 140.457 252.62 139.134 251.673C138.221 251.125 137.439 250.385 136.842 249.504C136.245 248.622 135.848 247.621 135.678 246.571C135.508 245.52 135.569 244.445 135.858 243.42C136.147 242.396 136.656 241.447 137.349 240.639C137.958 239.722 138.757 238.946 139.692 238.365C140.627 237.783 141.676 237.41 142.768 237.269C143.86 237.129 144.97 237.226 146.021 237.552C147.073 237.879 148.042 238.428 148.862 239.162C149.955 239.914 150.877 240.888 151.568 242.021L150.206 243.057C149.617 242.037 148.811 241.159 147.845 240.486C147.213 239.929 146.466 239.518 145.658 239.281C144.849 239.045 143.999 238.989 143.166 239.117C142.334 239.245 141.539 239.554 140.839 240.023C140.139 240.491 139.55 241.108 139.115 241.829C138.575 242.445 138.174 243.169 137.936 243.953C137.699 244.737 137.632 245.562 137.739 246.374C137.846 247.186 138.125 247.965 138.558 248.661C138.99 249.356 139.566 249.951 140.247 250.406C140.946 250.991 141.765 251.417 142.645 251.653L145.37 247.931L142.837 246.012L143.797 244.707L147.903 247.72L143.49 253.802Z" fill="white"/>
<path d="M160.03 257.781L155.157 254.212L151.856 258.721L157.267 262.693L156.27 264.055L149.247 258.894L158.419 246.383L165.173 251.353L164.175 252.696L159.033 248.858L156.135 252.811L160.99 256.361L160.03 257.781Z" fill="white"/>
<defs>
<linearGradient id="paint0_linear_1689_13099" x1="110.269" y1="163.549" x2="89.3388" y2="192.233" gradientUnits="userSpaceOnUse">
<stop stop-color="white"/>
<stop offset="1" stop-color="#58595B"/>
</linearGradient>
<linearGradient id="paint1_linear_1689_13099" x1="161.977" y1="220.499" x2="163.648" y2="281.978" gradientUnits="userSpaceOnUse">
<stop stop-color="white"/>
<stop offset="1" stop-color="#58595B"/>
</linearGradient>
<linearGradient id="paint2_linear_1689_13099" x1="43.8052" y1="44.4209" x2="156.326" y2="156.942" gradientUnits="userSpaceOnUse">
<stop stop-color="white"/>
<stop offset="1" stop-color="#B9B9B9"/>
</linearGradient>
<linearGradient id="paint3_linear_1689_13099" x1="23.5219" y1="101.33" x2="178.065" y2="101.33" gradientUnits="userSpaceOnUse">
<stop stop-color="#EEF1F2"/>
<stop offset="1" stop-color="#F3F7F7"/>
</linearGradient>
</defs>
</svg>
