<svg width="311" height="201" viewBox="0 0 311 201" fill="none" xmlns="http://www.w3.org/2000/svg">
<path d="M24.9449 144.218C18.9816 156.703 10.4867 167.812 0 176.838C0 176.838 111.983 80.5124 111.983 80.5124C107.522 102.062 110.294 124.481 119.87 144.295C131.543 168.169 152.19 186.454 177.301 195.155C202.411 203.856 229.945 202.265 253.887 190.732C277.829 179.198 296.234 158.658 305.081 133.598C313.928 108.539 312.498 80.9963 301.104 56.9874C295.372 45.0807 287.35 34.4201 277.497 25.6148C267.643 16.8095 256.151 10.0321 243.678 5.66984C231.204 1.30758 217.993 -0.554019 204.799 0.191422C191.606 0.936864 178.688 4.27472 166.785 10.0143C158.855 13.8412 151.462 18.6925 144.796 24.444L32.9081 120.712C31.2265 128.844 28.552 136.738 24.9449 144.218ZM175.938 28.9532C190.103 22.125 205.975 19.6511 221.546 21.8444C237.118 24.0377 251.689 30.7997 263.416 41.2751C275.144 51.7505 283.502 65.4686 287.432 80.6945C291.363 95.9203 290.689 111.97 285.497 126.813C280.305 141.656 270.828 154.626 258.264 164.082C245.7 173.538 230.614 179.056 214.914 179.937C199.213 180.819 183.604 177.024 170.061 169.033C156.518 161.042 145.648 149.215 138.828 135.046C134.252 125.651 131.582 115.443 130.972 105.011C130.363 94.5795 131.825 84.1301 135.275 74.2665C138.726 64.4028 144.095 55.3201 151.075 47.5427C158.054 39.7653 166.504 33.4473 175.938 28.9532Z" fill="#2A3072"/>
<path style="mix-blend-mode:multiply" d="M158.899 40.1016C148.964 48.636 141.281 59.4827 136.526 71.6863C131.771 83.8898 130.091 97.0754 131.632 110.082L113.212 125.95C109.335 111.07 108.928 95.498 112.022 80.4355L158.899 40.1016Z" fill="url(#paint0_linear_1689_13097)"/>
<path style="mix-blend-mode:multiply" d="M32.8889 120.637C31.2194 128.794 28.5513 136.714 24.9449 144.219C18.9816 156.705 10.4867 167.813 0 176.839C0 176.839 57.5651 127.391 90.1854 99.3377L89.4754 72.1094L32.8889 120.637Z" fill="url(#paint1_linear_1689_13097)"/>
<path d="M290.148 100.56C290.148 116.325 285.473 131.736 276.715 144.844C267.956 157.952 255.507 168.168 240.943 174.201C226.378 180.234 210.351 181.813 194.889 178.737C179.427 175.661 165.224 168.07 154.077 156.923C142.93 145.775 135.338 131.572 132.263 116.11C129.187 100.649 130.766 84.6218 136.798 70.057C142.831 55.4921 153.048 43.0434 166.156 34.2849C179.264 25.5264 194.675 20.8516 210.439 20.8516C220.908 20.849 231.274 22.9091 240.946 26.9139C250.617 30.9188 259.405 36.7899 266.808 44.1921C274.21 51.5942 280.081 60.3822 284.086 70.054C288.091 79.7258 290.151 90.0919 290.148 100.56Z" fill="url(#paint2_linear_1689_13097)"/>
<path d="M210.423 23.3984C195.135 23.3946 180.19 27.9244 167.477 36.4149C154.764 44.9055 144.855 56.9753 139.002 71.098C133.149 85.2207 131.616 100.762 134.596 115.756C137.576 130.75 144.935 144.524 155.744 155.335C166.552 166.146 180.324 173.51 195.318 176.493C210.311 179.477 225.853 177.948 239.977 172.098C254.101 166.249 266.173 156.342 274.667 143.632C283.161 130.921 287.694 115.977 287.694 100.689C287.697 90.5401 285.7 80.49 281.818 71.1128C277.936 61.7355 272.244 53.2149 265.069 46.0375C257.893 38.8602 249.374 33.1667 239.998 29.2823C230.621 25.3978 220.572 23.3984 210.423 23.3984Z" fill="url(#paint3_linear_1689_13097)"/>
<path d="M145.161 29.1458C145.806 27.8963 146.709 26.7977 147.809 25.9221C148.561 25.2002 149.461 24.6489 150.445 24.3059C151.43 23.963 152.477 23.8363 153.515 23.9347C154.553 24.033 155.558 24.354 156.461 24.8758C157.363 25.3976 158.143 26.1079 158.746 26.9583C159.509 27.742 160.096 28.6797 160.467 29.7085C160.838 30.7373 160.984 31.8336 160.897 32.9237C160.81 34.0139 160.491 35.0728 159.961 36.0296C159.431 36.9864 158.703 37.8189 157.825 38.4714C156.91 39.3571 155.799 40.0145 154.583 40.3902L153.892 38.8359C154.927 38.5364 155.884 38.0123 156.693 37.3008C157.363 36.7962 157.914 36.1515 158.308 35.4118C158.702 34.6721 158.93 33.8551 158.976 33.0182C159.021 32.1812 158.884 31.3444 158.572 30.5662C158.261 29.7879 157.783 29.0871 157.173 28.5126C156.7 27.8456 156.09 27.287 155.384 26.8742C154.678 26.4614 153.892 26.2037 153.079 26.1184C152.265 26.033 151.443 26.122 150.667 26.3793C149.89 26.6366 149.178 27.0565 148.577 27.6107C147.712 28.3275 147.007 29.2162 146.504 30.2203L145.161 29.1458Z" fill="white"/>
<path d="M147.924 46.4739L141.975 39.4893C139.73 36.8413 137.6 36.707 136.027 38.0502C134.453 39.3934 134.108 41.6576 136.353 44.2672L142.301 51.271L140.747 52.5758L134.991 45.6871C131.901 42.0413 132.554 38.9328 135.125 36.7646C137.696 34.5963 140.536 34.5387 143.645 38.2037L149.574 45.1691L147.924 46.4739Z" fill="white"/>
<path d="M134.454 57.5888C133.63 58.5771 132.718 59.4891 131.729 60.3135C130.608 61.4651 129.094 62.1505 127.489 62.2324C126.938 62.2074 126.4 62.0641 125.91 61.8125C125.42 61.5609 124.99 61.2067 124.649 60.774C124.068 60.1019 123.722 59.2589 123.663 58.3726C123.604 57.4862 123.836 56.6048 124.323 55.8618C123.659 56.0702 122.952 56.0947 122.276 55.9324C121.6 55.7702 120.981 55.4274 120.485 54.9408C119.331 54.0105 118.098 53.1822 116.801 52.4654L118.393 51.1415C119.525 51.7488 120.592 52.4688 121.579 53.2906C123.306 54.6146 124.457 54.6913 125.896 53.5784L127.335 52.3503L122.979 47.2271L124.515 45.9414L134.454 57.5888ZM128.352 53.4824L126.798 54.8256C126.43 55.0535 126.115 55.3568 125.874 55.7157C125.632 56.0746 125.47 56.4807 125.397 56.9071C125.325 57.3336 125.343 57.7706 125.453 58.1892C125.562 58.6077 125.759 58.9983 126.03 59.3349C127.335 60.8508 129.005 60.5822 130.636 59.2198C131.154 58.8064 131.618 58.3293 132.017 57.7998L128.352 53.4824Z" fill="white"/>
<path d="M120.101 70.1131L110.065 58.2739L111.6 56.9883L121.636 68.8083L120.101 70.1131Z" fill="white"/>
<path d="M98.9167 78.135C95.4436 74.067 96.0961 69.8264 99.1087 67.2552C102.121 64.6839 106.477 65.1636 109.528 68.7327C112.579 72.3017 112.464 76.9261 109.298 79.6125C106.132 82.2989 101.891 81.6464 98.9167 78.135ZM107.916 70.1526C105.767 67.6389 102.486 66.526 100.087 68.5792C97.6886 70.6323 98.1683 74.0286 100.452 76.6958C102.371 79.056 105.767 80.5335 108.319 78.3076C110.871 76.0818 110.123 72.7622 107.916 70.1526Z" fill="white"/>
<path d="M90.0709 78.4634C88.8189 78.6645 87.645 79.2017 86.6745 80.0176C86.3339 80.2192 86.0407 80.4916 85.8145 80.8164C85.5883 81.1411 85.4346 81.5107 85.3636 81.9C85.2926 82.2894 85.3061 82.6895 85.4032 83.0731C85.5002 83.4568 85.6785 83.8151 85.9261 84.1239C86.8663 85.2368 88.0177 85.3328 90.1476 84.5845C92.6612 83.6442 94.6953 83.625 96.1152 85.2944C96.4875 85.7819 96.7555 86.3407 96.9025 86.9362C97.0496 87.5317 97.0726 88.1511 96.97 88.7559C96.8674 89.3606 96.6415 89.9378 96.3063 90.4514C95.9711 90.9651 95.5337 91.4043 95.0215 91.7417C94.1398 92.5433 93.0709 93.1107 91.913 93.3919L91.2797 91.7801C92.2791 91.5639 93.2089 91.1023 93.9852 90.4369C94.2904 90.259 94.5544 90.0182 94.7596 89.7306C94.9648 89.443 95.1065 89.1152 95.1754 88.7687C95.2443 88.4222 95.2389 88.065 95.1595 87.7208C95.08 87.3766 94.9283 87.0531 94.7144 86.7719C93.7742 85.6782 92.6037 85.7358 90.4354 86.4841C87.7683 87.4243 85.9454 87.3092 84.4679 85.5822C82.9904 83.8553 82.9327 81.0346 85.7151 78.6553C86.7611 77.7486 88.0235 77.1273 89.3801 76.8516L90.0709 78.4634Z" fill="white"/>
<path d="M84.6406 100.219L74.5859 88.3989L76.121 87.1133L86.1566 98.9333L84.6406 100.219Z" fill="white"/>
<path d="M75.1042 106.074L78.7116 103.023L79.8054 104.328L71.0554 111.754L69.9425 110.468L73.5692 107.398L64.6273 96.8634L66.1624 95.5586L75.1042 106.074Z" fill="white"/>
<path d="M53.0567 106.688L57.3165 111.715L66.9106 115.341L65.1836 116.819L60.732 114.9C59.5232 114.401 58.5638 113.979 57.4892 113.461C57.8154 114.516 58.0648 115.629 58.3718 116.915L59.4463 121.616L57.7003 123.094L55.8965 112.943L51.4448 107.992L53.0567 106.688Z" fill="white"/>
<defs>
<linearGradient id="paint0_linear_1689_13097" x1="147.439" y1="96.1817" x2="124.134" y2="69.3924" gradientUnits="userSpaceOnUse">
<stop stop-color="white"/>
<stop offset="1" stop-color="#58595B"/>
</linearGradient>
<linearGradient id="paint1_linear_1689_13097" x1="85.8882" y1="132.55" x2="25.4097" y2="120.672" gradientUnits="userSpaceOnUse">
<stop stop-color="white"/>
<stop offset="1" stop-color="#58595B"/>
</linearGradient>
<linearGradient id="paint2_linear_1689_13097" x1="153.719" y1="43.8392" x2="266.239" y2="156.379" gradientUnits="userSpaceOnUse">
<stop stop-color="white"/>
<stop offset="1" stop-color="#B9B9B9"/>
</linearGradient>
<linearGradient id="paint3_linear_1689_13097" x1="133.132" y1="100.689" x2="287.694" y2="100.689" gradientUnits="userSpaceOnUse">
<stop stop-color="#EEF1F2"/>
<stop offset="1" stop-color="#F3F7F7"/>
</linearGradient>
</defs>
</svg>
