<svg width="201" height="323" viewBox="0 0 201 323" fill="none" xmlns="http://www.w3.org/2000/svg">
<path d="M98.6657 32.2087C87.8527 23.5946 78.9412 12.8341 72.4927 0.605469C72.4927 0.605469 141.571 131.202 141.571 131.202C119.93 121.43 95.5237 119.654 72.6958 126.189C49.8678 132.723 30.0986 147.145 16.9058 166.887C3.71301 186.63 -2.04752 210.413 0.649084 234.004C3.34569 257.595 14.3245 279.464 31.6321 295.721C48.9398 311.977 71.4536 321.565 95.1673 322.78C118.881 323.994 142.257 316.756 161.135 302.354C180.013 287.951 193.168 267.318 198.261 244.126C203.354 220.933 200.054 196.686 188.947 175.699L119.984 45.2184C112.362 41.7891 105.201 37.4185 98.6657 32.2087ZM177.434 205.058C180.937 220.386 179.816 236.41 174.213 251.101C168.609 265.792 158.774 278.492 145.953 287.594C133.131 296.696 117.898 301.791 102.181 302.236C86.463 302.68 70.9666 298.453 57.6513 290.09C44.3361 281.726 33.8 269.602 27.3755 255.251C20.9511 240.899 18.927 224.965 21.5591 209.463C24.1911 193.961 31.3612 179.587 42.1624 168.16C52.9637 156.734 66.911 148.766 82.2404 145.267C92.419 142.899 102.966 142.569 113.272 144.297C123.579 146.025 133.441 149.777 142.291 155.335C151.14 160.893 158.802 168.149 164.833 176.683C170.865 185.217 175.148 194.86 177.434 205.058Z" fill="#2A3072"/>
<path style="mix-blend-mode:multiply" d="M170.372 185.884C164.275 174.285 155.415 164.367 144.575 157.005C133.736 149.643 121.25 145.062 108.221 143.669L96.8618 122.178C112.226 121.695 127.494 124.768 141.475 131.158L170.372 185.884Z" fill="url(#paint0_linear_1689_13095)"/>
<path style="mix-blend-mode:multiply" d="M119.887 45.1953C99.5792 36.0005 82.9058 20.3126 72.4922 0.601562C72.4922 0.601562 107.914 67.7608 128.004 105.696L154.695 111.05L119.887 45.1953Z" fill="url(#paint1_linear_1689_13095)"/>
<path d="M179.659 222.759C179.659 238.524 174.984 253.935 166.226 267.043C157.467 280.151 145.019 290.367 130.454 296.4C115.889 302.433 99.8624 304.012 84.4005 300.936C68.9385 297.861 54.7358 290.269 43.5884 279.122C32.4409 267.974 24.8494 253.772 21.7738 238.31C18.6982 222.848 20.2768 206.821 26.3097 192.256C32.3427 177.691 42.5591 165.243 55.6671 156.484C68.7751 147.726 84.1859 143.051 99.9507 143.051C121.091 143.051 141.365 151.449 156.313 166.397C171.261 181.345 179.659 201.619 179.659 222.759Z" fill="url(#paint2_linear_1689_13095)"/>
<path d="M100.194 145.445C84.9111 145.445 69.9714 149.977 57.2642 158.468C44.5569 166.959 34.6529 179.027 28.8044 193.146C22.9559 207.266 21.4256 222.803 24.4071 237.792C27.3887 252.781 34.7481 266.55 45.5547 277.356C56.3614 288.163 70.1298 295.522 85.1191 298.504C100.108 301.485 115.645 299.955 129.765 294.107C143.884 288.258 155.952 278.354 164.443 265.647C172.934 252.939 177.466 238 177.466 222.717C177.466 202.223 169.324 182.569 154.833 168.078C140.342 153.586 120.688 145.445 100.194 145.445Z" fill="url(#paint3_linear_1689_13095)"/>
<path d="M169.413 176.882L183.133 169.648L184.073 171.433L170.334 178.648L169.413 176.882Z" fill="white"/>
<path d="M179.372 162.402L165.634 169.636L164.617 167.717L169.241 159.658C170.202 157.982 171.265 156.367 172.426 154.823C170.68 155.955 169.03 156.876 166.9 157.989L161.143 161.021L160.261 159.351L174 152.117L174.94 153.921L170.277 161.942C169.297 163.662 168.214 165.321 167.034 166.911C168.704 165.894 170.335 164.993 172.618 163.784L178.49 160.694L179.372 162.402Z" fill="white"/>
<path d="M156.576 148.732L158.763 152.915L157.267 153.702L151.913 143.551L153.429 142.745L155.636 146.948L167.859 140.52L168.799 142.304L156.576 148.732Z" fill="white"/>
<path d="M152.508 126.991L155.329 132.326L160.279 129.716L157.075 123.787L158.552 123L162.62 130.675L148.881 137.89L145.043 130.483L146.521 129.697L149.495 135.338L153.832 133.055L151.03 127.72L152.508 126.991Z" fill="white"/>
<path d="M149.17 106.48C150.359 107.588 151.358 108.885 152.125 110.318C152.714 111.207 153.101 112.214 153.257 113.269C153.414 114.324 153.337 115.401 153.031 116.422C152.725 117.444 152.198 118.386 151.488 119.181C150.777 119.977 149.901 120.606 148.92 121.025C147.971 121.573 146.916 121.915 145.826 122.028C144.736 122.14 143.634 122.022 142.592 121.679C141.551 121.337 140.594 120.779 139.783 120.041C138.972 119.304 138.326 118.403 137.887 117.399C137.224 116.219 136.825 114.91 136.716 113.561L138.386 113.235C138.467 114.408 138.808 115.548 139.384 116.574C139.709 117.348 140.2 118.043 140.823 118.607C141.446 119.172 142.184 119.593 142.987 119.842C143.79 120.091 144.637 120.161 145.47 120.047C146.303 119.933 147.1 119.638 147.807 119.183C148.565 118.868 149.246 118.395 149.806 117.794C150.366 117.194 150.791 116.482 151.052 115.704C151.314 114.926 151.406 114.101 151.323 113.285C151.24 112.469 150.983 111.68 150.57 110.971C150.186 110.146 149.638 109.408 148.959 108.802L144.852 110.951L146.33 113.753L144.91 114.501L142.53 109.973L149.17 106.48Z" fill="white"/>
<path d="M132.649 106.503C131.867 105.482 131.174 104.398 130.576 103.26C129.687 101.915 129.344 100.282 129.617 98.6931C129.76 98.1618 130.016 97.6675 130.367 97.2438C130.718 96.82 131.156 96.4766 131.651 96.237C132.435 95.8172 133.334 95.6632 134.213 95.7981C135.092 95.9331 135.903 96.3497 136.525 96.9853C136.476 96.307 136.609 95.628 136.909 95.0177C137.209 94.4075 137.666 93.8879 138.233 93.5122C139.383 92.5926 140.455 91.5785 141.437 90.4805L142.396 92.3993C141.56 93.3728 140.628 94.2599 139.614 95.0473C137.926 96.4481 137.695 97.561 138.386 99.192L139.269 100.861L145.217 97.7337L146.138 99.5182L132.649 106.503ZM137.983 101.437L137.024 99.6333C136.881 99.2243 136.653 98.8503 136.355 98.5363C136.056 98.2223 135.695 97.9753 135.294 97.812C134.892 97.6486 134.461 97.5725 134.028 97.5888C133.595 97.6051 133.171 97.7133 132.783 97.9064C131.018 98.8466 130.864 100.535 131.881 102.416C132.179 103.013 132.546 103.574 132.975 104.085L137.983 101.437Z" fill="white"/>
<path d="M123.63 89.7851L137.35 82.5703L138.29 84.3356L124.551 91.5696L123.63 89.7851Z" fill="white"/>
<path d="M119.984 79.2172L122.191 83.4003L120.675 84.187L115.321 74.0172L116.78 73.2688L118.986 77.4711L131.209 71.043L132.15 72.8275L119.984 79.2172Z" fill="white"/>
<path d="M124.205 57.5718L118.449 60.6227L112.827 69.1231L111.771 67.1083L114.535 63.2707C115.302 62.1961 115.916 61.3518 116.645 60.4308C115.552 60.5267 114.4 60.5267 113.095 60.5459H108.26L107.205 58.5312L117.509 58.9917L123.265 55.9023L124.205 57.5718Z" fill="white"/>
<defs>
<linearGradient id="paint0_linear_1689_13095" x1="118.25" y1="162.182" x2="149.555" y2="145.423" gradientUnits="userSpaceOnUse">
<stop stop-color="white"/>
<stop offset="1" stop-color="#58595B"/>
</linearGradient>
<linearGradient id="paint1_linear_1689_13095" x1="96.5352" y1="94.1833" x2="121.595" y2="37.8654" gradientUnits="userSpaceOnUse">
<stop stop-color="white"/>
<stop offset="1" stop-color="#58595B"/>
</linearGradient>
<linearGradient id="paint2_linear_1689_13095" x1="43.2299" y1="166.038" x2="155.77" y2="278.578" gradientUnits="userSpaceOnUse">
<stop stop-color="white"/>
<stop offset="1" stop-color="#B9B9B9"/>
</linearGradient>
<linearGradient id="paint3_linear_1689_13095" x1="22.9032" y1="222.717" x2="177.466" y2="222.717" gradientUnits="userSpaceOnUse">
<stop stop-color="#EEF1F2"/>
<stop offset="1" stop-color="#F3F7F7"/>
</linearGradient>
</defs>
</svg>
